<?xml version="1.0"?>
<svg xmlns="http://www.w3.org/2000/svg" height="512px" viewBox="0 -25 480 480" width="512px"><g><path d="m456 80h-120v16h120c4.417969.003906 7.996094 3.582031 8 8v280c-.003906 4.417969-3.582031 7.996094-8 8h-171.570312c-4.347657 0-8.617188 1.183594-12.34375 3.421875l-27.960938 16.777344c-2.535156 1.523437-5.707031 1.527343-8.242188.003906l-27.96875-16.78125c-3.726562-2.238281-7.996093-3.421875-12.34375-3.421875h-171.570312c-4.417969-.003906-7.996094-3.582031-8-8v-280c.003906-4.417969 3.582031-7.996094 8-8h120v-16h-120c-13.25.015625-23.984375 10.75-24 24v280c.015625 13.25 10.75 23.984375 24 24h171.570312c1.449219 0 2.867188.394531 4.109376 1.140625l27.976562 16.785156c7.597656 4.5625 17.097656 4.5625 24.695312-.003906l27.96875-16.78125c1.242188-.746094 2.660157-1.140625 4.109376-1.140625h171.570312c13.25-.015625 23.984375-10.75 24-24v-280c-.015625-13.25-10.75-23.984375-24-24zm0 0" data-original="#000000" class="active-path" data-old_color="#000000" fill="#202095"/><path d="m56 344v-16h-8c-8.832031.011719-15.988281 7.167969-16 16v8c.015625 13.25 10.75 23.984375 24 24h144c13.25-.015625 23.984375-10.75 24-24v-8c-.011719-8.832031-7.167969-15.988281-16-16h-8v16h8v8c-.003906 4.417969-3.582031 7.996094-8 8h-144c-4.417969-.003906-7.996094-3.582031-8-8v-8zm0 0" data-original="#000000" class="active-path" data-old_color="#000000" fill="#202095"/><path d="m424 360h-144c-4.417969-.003906-7.996094-3.582031-8-8v-8h8v-16h-8c-8.832031.011719-15.988281 7.167969-16 16v8c.015625 13.25 10.75 23.984375 24 24h144c13.25-.015625 23.984375-10.75 24-24v-8c-.011719-8.832031-7.167969-15.988281-16-16h-8v16h8v8c-.003906 4.417969-3.582031 7.996094-8 8zm0 0" data-original="#000000" class="active-path" data-old_color="#000000" fill="#202095"/><path d="m200 264h-8v-16c-.011719-8.832031-7.167969-15.988281-16-16h-96c-8.832031.011719-15.988281 7.167969-16 16v56c.027344 22.082031 17.917969 39.972656 40 40h48c19-.027344 35.367188-13.390625 39.191406-32h8.808594c13.253906 0 24-10.746094 24-24s-10.746094-24-24-24zm-24 40c-.015625 13.25-10.75 23.984375-24 24h-48c-13.25-.015625-23.984375-10.75-24-24v-56h96zm24-8h-8v-16h8c4.417969 0 8 3.582031 8 8s-3.582031 8-8 8zm0 0" data-original="#000000" class="active-path" data-old_color="#000000" fill="#202095"/><path d="m352 224c-13.25.015625-23.984375 10.75-24 24 .027344 2.730469.527344 5.4375 1.476562 8h-17.476562c-8.832031.011719-15.988281 7.167969-16 16v56c.011719 8.832031 7.167969 15.988281 16 16h80c8.832031-.011719 15.988281-7.167969 16-16v-56c-.011719-8.832031-7.167969-15.988281-16-16h-17.472656c.945312-2.5625 1.445312-5.269531 1.472656-8-.015625-13.25-10.75-23.984375-24-24zm-8 24c0-4.417969 3.582031-8 8-8s8 3.582031 8 8-3.582031 8-8 8c-4.417969-.003906-7.996094-3.582031-8-8zm48 80h-80v-56h80zm0 0" data-original="#000000" class="active-path" data-old_color="#000000" fill="#202095"/><path d="m240 160c44.183594 0 80-35.816406 80-80s-35.816406-80-80-80-80 35.816406-80 80c.050781 44.160156 35.839844 79.949219 80 80zm0-144c35.347656 0 64 28.652344 64 64s-28.652344 64-64 64-64-28.652344-64-64c.039062-35.328125 28.671875-63.960938 64-64zm0 0" data-original="#000000" class="active-path" data-old_color="#000000" fill="#202095"/><path d="m336.164062 119.597656-11.3125 11.3125 16.976563 16.972656-29.703125 4.242188-4.242188 29.699219-16.96875-16.972657-11.3125 11.3125 22.617188 22.625c3.214844 3.214844 7.96875 4.339844 12.285156 2.902344 4.3125-1.4375 7.445313-5.1875 8.089844-9.6875l3.671875-25.738281 25.742187-3.675781c4.5-.640625 8.25-3.773438 9.6875-8.082032 1.4375-4.3125.316407-9.066406-2.898437-12.28125zm0 0" data-original="#000000" class="active-path" data-old_color="#000000" fill="#202095"/><path d="m143.835938 119.597656-22.640626 22.632813c-3.210937 3.214843-4.328124 7.96875-2.890624 12.277343 1.441406 4.3125 5.1875 7.441407 9.6875 8.082032l25.742187 3.675781 3.671875 25.746094c.640625 4.5 3.773438 8.253906 8.085938 9.691406 4.316406 1.433594 9.070312.308594 12.28125-2.910156l22.625-22.628907-11.3125-11.3125-16.96875 16.972657-4.242188-29.699219-29.703125-4.242188 16.976563-16.972656zm0 0" data-original="#000000" class="active-path" data-old_color="#000000" fill="#202095"/></g> </svg>
