<?xml version="1.0"?>
<svg xmlns="http://www.w3.org/2000/svg" height="512px" viewBox="0 -38 486.458 486" width="512px"><g><path d="m396.929688 336.367188h-307.398438c-6.832031 0-12.371094-5.539063-12.371094-12.371094v-307.394532c0-6.832031 5.539063-12.371093 12.371094-12.371093h307.398438c6.832031 0 12.371093 5.535156 12.371093 12.371093v307.394532c0 6.832031-5.539062 12.371094-12.371093 12.371094zm0 0" fill="#f9a7a7" data-original="#F9A7A7"/><path d="m396.929688 340.367188h-307.398438c-9.027344 0-16.371094-7.34375-16.371094-16.371094v-307.394532c0-9.027343 7.34375-16.371093 16.371094-16.371093h307.398438c9.027343 0 16.371093 7.34375 16.371093 16.371093v307.394532c0 9.027344-7.34375 16.371094-16.371093 16.371094zm-307.398438-332.136719c-4.617188 0-8.371094 3.753906-8.371094 8.371093v307.394532c0 4.617187 3.753906 8.371094 8.371094 8.371094h307.398438c4.613281 0 8.371093-3.753907 8.371093-8.371094v-307.394532c0-4.617187-3.753906-8.371093-8.371093-8.371093zm0 0" fill="#3762cc" data-original="#3762CC"/><path d="m331.066406 90.160156c-83.609375 0-151.390625 67.777344-151.390625 151.390625s67.78125 151.390625 151.390625 151.390625c83.613282 0 151.394532-67.777344 151.394532-151.390625s-67.78125-151.390625-151.394532-151.390625zm0 183.261719c-17.574218 0-31.871094-14.296875-31.871094-31.871094s14.296876-31.871093 31.871094-31.871093c17.574219 0 31.875 14.296874 31.875 31.871093s-14.300781 31.871094-31.875 31.871094zm0 0" fill="#4671c6" data-original="#4671C6"/><path d="m361.785156 249.929688c-2.46875 9.039062-8.808594 16.46875-17.136718 20.410156l51.027343 108.152344c39.601563-18.714844 69.773438-54.097657 81.472657-97.097657zm0 0" fill="#a4c9ff" data-original="#A4C9FF"/><path d="m331.066406 209.679688c4.761719 0 9.265625 1.078124 13.328125 2.957031l50.050781-108.601563c-19.28125-8.898437-40.746093-13.875-63.378906-13.875-22.628906 0-44.09375 4.972656-63.375 13.875l50.050782 108.601563c4.0625-1.878907 8.566406-2.957031 13.324218-2.957031zm0 0" fill="#a4c9ff" data-original="#A4C9FF"/><path d="m331.066406 177.808594c-35.144531 0-63.742187 28.59375-63.742187 63.742187 0 35.148438 28.597656 63.746094 63.742187 63.746094 35.148438 0 63.746094-28.597656 63.746094-63.746094 0-35.148437-28.597656-63.742187-63.746094-63.742187zm0 95.613281c-17.574218 0-31.871094-14.296875-31.871094-31.871094s14.296876-31.871093 31.871094-31.871093c17.574219 0 31.875 14.296874 31.875 31.871093s-14.300781 31.871094-31.875 31.871094zm0 0" fill="#e0ebfc" data-original="#E0EBFC"/><path d="m331.066406 396.941406c-85.683594 0-155.390625-69.707031-155.390625-155.390625 0-85.683593 69.707031-155.390625 155.390625-155.390625s155.390625 69.707032 155.390625 155.390625c0 85.683594-69.703125 155.390625-155.390625 155.390625zm0-302.78125c-81.269531 0-147.390625 66.117188-147.390625 147.390625 0 81.273438 66.121094 147.390625 147.390625 147.390625 81.273438 0 147.390625-66.117187 147.390625-147.390625 0-81.273437-66.117187-147.390625-147.390625-147.390625zm0 0" fill="#3762cc" data-original="#3762CC"/><path d="m331.066406 309.292969c-37.351562 0-67.742187-30.390625-67.742187-67.742188 0-37.355469 30.390625-67.746093 67.742187-67.746093 37.355469 0 67.746094 30.390624 67.746094 67.746093s-30.390625 67.742188-67.746094 67.742188zm0-127.484375c-32.941406 0-59.742187 26.796875-59.742187 59.742187 0 32.941407 26.800781 59.746094 59.742187 59.746094 32.945313 0 59.746094-26.800781 59.746094-59.746094 0-32.945312-26.800781-59.742187-59.746094-59.742187zm0 95.613281c-19.777344 0-35.871094-16.089844-35.871094-35.871094s16.09375-35.871093 35.871094-35.871093c19.78125 0 35.875 16.089843 35.875 35.871093s-16.09375 35.871094-35.875 35.871094zm0-63.742187c-15.367187 0-27.871094 12.5-27.871094 27.871093 0 15.371094 12.503907 27.871094 27.871094 27.871094 15.371094 0 27.875-12.5 27.875-27.871094 0-15.371093-12.503906-27.871093-27.875-27.871093zm0 0" fill="#3762cc" data-original="#3762CC"/><path d="m300.351562 249.929688-115.363281 31.464843c11.703125 43 41.875 78.382813 81.476563 97.101563l51.023437-108.152344c-8.328125-3.949219-14.667969-11.378906-17.136719-20.414062zm0 0" fill="#a4c9ff" data-original="#A4C9FF"/><path d="m323.769531 406.101562h-307.398437c-6.832032 0-12.371094-5.539062-12.371094-12.371093v-307.398438c0-6.832031 5.539062-12.371093 12.371094-12.371093h307.398437c6.832031 0 12.371094 5.539062 12.371094 12.371093v307.398438c-.003906 6.832031-5.539063 12.371093-12.371094 12.371093zm0 0" fill="#6bdddd" data-original="#6BDDDD"/><path d="m323.769531 410.101562h-307.398437c-9.027344 0-16.371094-7.34375-16.371094-16.371093v-307.398438c0-9.027343 7.34375-16.371093 16.371094-16.371093h307.398437c9.027344 0 16.371094 7.34375 16.371094 16.371093v307.398438c-.003906 9.027343-7.347656 16.371093-16.371094 16.371093zm-307.398437-332.140624c-4.613282 0-8.371094 3.757812-8.371094 8.371093v307.398438c0 4.613281 3.753906 8.371093 8.371094 8.371093h307.398437c4.613281 0 8.371094-3.753906 8.371094-8.371093v-307.398438c0-4.613281-3.753906-8.371093-8.371094-8.371093zm0 0" fill="#3762cc" data-original="#3762CC"/><path d="m292.070312 241.550781c0 67.378907-54.621093 122-122 122-67.378906 0-122-54.621093-122-122 0-67.378906 54.621094-122 122-122 67.378907 0 122 54.621094 122 122zm0 0" fill="#4671c6" data-original="#4671C6"/><path d="m226.949219 165.386719c-.5625 0-1.125.058593-1.675781.179687l-92.683594 20.035156c-3.605469.78125-6.222656 4.019532-6.222656 7.707032v79.171875c-2.914063-.824219-6.066407-1.28125-9.382813-1.28125-2.125 0-4.285156.191406-6.417969.566406-7.71875 1.363281-14.589844 5.039063-19.34375 10.347656-4.964844 5.546875-7.066406 12.203125-5.914062 18.742188 2 11.34375 13.214844 19.265625 27.265625 19.265625 2.128906 0 4.289062-.191406 6.417969-.566406 7.722656-1.363282 14.59375-5.035157 19.347656-10.34375 4.433594-4.953126 6.5625-10.789063 6.152344-16.640626.015624-.214843.0625-.417968.0625-.636718v-71.054688l72.082031-15.582031v51.1875c-2.917969-.824219-6.066407-1.28125-9.378907-1.28125-2.128906 0-4.289062.191406-6.417968.566406-7.722656 1.363281-14.59375 5.039063-19.347656 10.347657-4.964844 5.546874-7.066407 12.203124-5.914063 18.742187 2 11.34375 13.214844 19.265625 27.269531 19.265625 2.125 0 4.285156-.191406 6.417969-.566406 7.71875-1.363282 14.589844-5.035156 19.34375-10.34375 4.488281-5.015625 6.609375-10.9375 6.128906-16.859375.03125-.292969.089844-.582031.089844-.882813v-102.203125c-.003906-4.347656-3.535156-7.882812-7.878906-7.882812zm0 0" fill="#f9a7a7" data-original="#F9A7A7"/><g fill="#ffea92"><path d="m145.785156 209.878906c-3.082031 0-5.59375-2.511718-5.59375-5.601562v-7.015625c0-2.644531 1.800782-4.890625 4.378906-5.464844l69.527344-15.542969c.402344-.089844.8125-.136718 1.226563-.136718 3.082031 0 5.59375 2.515624 5.59375 5.605468v7.015625c0 2.640625-1.800781 4.890625-4.378907 5.464844l-69.523437 15.539063c-.40625.089843-.820313.136718-1.230469.136718zm0 0" data-original="#FFEA92" class="active-path" style="fill:#0F0FBB" data-old_color="#FFEA92"/><path d="m112.574219 309.355469c-8.59375 0-15.601563-4.359375-16.660157-10.363281-.765624-4.339844 1.757813-7.9375 3.328126-9.691407 3.109374-3.472656 7.917968-5.996093 13.199218-6.929687 1.511719-.265625 3.042969-.398438 4.546875-.398438 8.597657 0 15.605469 4.359375 16.660157 10.363282.605468 3.421874-.855469 7.203124-4.003907 10.386718-3.113281 3.144532-7.558593 5.359375-12.519531 6.230469-1.515625.269531-3.046875.402344-4.550781.402344zm0 0" data-original="#FFEA92" class="active-path" style="fill:#0F0FBB" data-old_color="#FFEA92"/><path d="m202.84375 293.359375c-8.597656 0-15.605469-4.359375-16.660156-10.363281-.769532-4.34375 1.753906-7.9375 3.328125-9.691406 3.109375-3.472657 7.917969-5.996094 13.195312-6.925782 1.515625-.269531 3.046875-.402344 4.550781-.402344 8.59375 0 15.601563 4.359376 16.660157 10.363282 1.128906 6.421875-5.238281 14.628906-16.527344 16.621094-1.511719.265624-3.042969.398437-4.546875.398437zm0 0" data-original="#FFEA92" class="active-path" style="fill:#0F0FBB" data-old_color="#FFEA92"/></g></g> </svg>
