<?xml version="1.0"?>
<svg xmlns="http://www.w3.org/2000/svg" id="Capa_1" enable-background="new 0 0 512 512" height="512px" viewBox="0 0 512 512" width="512px"><g><g fill="#050402"><path d="m499.768 43.63c0-19.59-15.938-35.527-35.527-35.527h-75.631v-.603c0-4.142-3.357-7.5-7.5-7.5s-7.5 3.358-7.5 7.5v.603h-110.11v-.603c0-4.142-3.357-7.5-7.5-7.5s-7.5 3.358-7.5 7.5v.603h-110.11v-.603c0-4.142-3.357-7.5-7.5-7.5s-7.5 3.358-7.5 7.5v.603h-75.631c-19.59 0-35.527 15.937-35.527 35.527v273.46c0 19.589 15.938 35.527 35.527 35.527h94.639v9.601c0 12.196 9.922 22.118 22.118 22.118h61.627v111.76c0 8.77 7.135 15.904 15.904 15.904h27.905c8.77 0 15.904-7.135 15.904-15.904v-47.486c0-4.142-3.357-7.5-7.5-7.5s-7.5 3.358-7.5 7.5v47.486c0 .499-.405.904-.904.904h-27.905c-.499 0-.904-.406-.904-.904 0-16.778 0-126.684 0-143.479h29.714v60.993c0 4.142 3.357 7.5 7.5 7.5s7.5-3.358 7.5-7.5v-29.274h61.627c12.196 0 22.118-9.922 22.118-22.118v-9.601h94.639c19.59 0 35.527-15.938 35.527-35.527zm-126.158-20.527v15.315c-11.384 0-96.883 0-110.11 0v-15.315zm-228.686 30.315c4.609 0 8.359 3.75 8.359 8.359s-3.75 8.359-8.359 8.359h-28.069c-4.608 0-8.358-3.75-8.358-8.359s3.75-8.359 8.358-8.359zm-28.069 31.718h28.069c12.881 0 23.359-10.479 23.359-23.359 0-2.945-.553-5.762-1.552-8.359h53.427c-.999 2.597-1.552 5.414-1.552 8.359 0 12.88 10.479 23.359 23.359 23.359h28.069c12.88 0 23.358-10.479 23.358-23.359 0-2.945-.553-5.762-1.552-8.359h53.428c-.999 2.597-1.552 5.414-1.552 8.359 0 12.88 10.479 23.359 23.359 23.359h28.068c12.881 0 23.359-10.479 23.359-23.359 0-2.945-.553-5.762-1.552-8.359h37.501v253.884h-396.905v-253.884h37.502c-.999 2.597-1.552 5.414-1.552 8.359.001 12.88 10.479 23.359 23.359 23.359zm153.18-31.718c4.608 0 8.358 3.75 8.358 8.359s-3.75 8.359-8.358 8.359h-28.069c-4.609 0-8.359-3.75-8.359-8.359s3.75-8.359 8.359-8.359zm133.468 8.359c0 4.609-3.75 8.359-8.359 8.359h-28.068c-4.609 0-8.359-3.75-8.359-8.359s3.75-8.359 8.359-8.359h28.068c4.609 0 8.359 3.75 8.359 8.359zm-155.003-38.674v15.315c-11.393 0-96.882 0-110.109 0v-15.315zm-22.357 346.232h-61.627c-3.925 0-7.118-3.193-7.118-7.118v-9.601h68.745zm128.459-7.117c0 3.925-3.193 7.118-7.118 7.118h-61.627v-16.718h68.745zm130.166-45.128c0 11.318-9.209 20.527-20.527 20.527-145.514 0-270.151 0-416.481 0-11.318 0-20.527-9.208-20.527-20.527v-273.46c0-11.318 9.209-20.527 20.527-20.527h75.631v15.315c-18.902 0-64.099 0-73.344 0-4.143 0-7.5 3.358-7.5 7.5v268.884c0 4.142 3.357 7.5 7.5 7.5h411.906c4.143 0 7.5-3.358 7.5-7.5v-268.884c0-4.142-3.357-7.5-7.5-7.5-10.324 0-55.393 0-73.343 0v-15.315h75.631c11.318 0 20.527 9.208 20.527 20.527z" data-original="#050402" class="active-path" data-old_color="#050402" fill="#0F0FBB"/><path d="m272.432 184.163c-1.784 2.998-2.828 6.486-2.828 10.221v2.015c0 7.986 4.699 14.878 11.468 18.108-.183.966-.288 1.959-.288 2.977v12.402c0 .502.03.996.075 1.487-7.778 1.816-13.596 8.792-13.596 17.115v2.48c0 16.387 13.332 29.719 29.719 29.719h30.727c4.143 0 7.5-3.358 7.5-7.5s-3.357-7.5-7.5-7.5h-30.727c-8.116 0-14.719-6.603-14.719-14.719v-2.48c0-1.428 1.162-2.59 2.59-2.59h120.711c1.429 0 2.591 1.162 2.591 2.59v2.48c0 8.116-6.604 14.719-14.72 14.719h-30.727c-4.143 0-7.5 3.358-7.5 7.5s3.357 7.5 7.5 7.5h30.727c16.388 0 29.72-13.332 29.72-29.719v-2.48c0-8.324-5.818-15.3-13.597-17.115.045-.49.075-.985.075-1.487v-12.402c0-1.018-.106-2.011-.288-2.977 6.769-3.23 11.468-10.122 11.468-18.108v-2.015c0-3.735-1.044-7.223-2.828-10.221 3.192-3.186 5.17-7.588 5.17-12.443 0-34.51-28.076-62.586-62.586-62.586h-30.72c-34.511 0-62.587 28.076-62.587 62.586 0 4.855 1.978 9.257 5.17 12.443zm133.381 10.221v2.015c0 2.75-2.323 5.074-5.073 5.074-14.776 0-100.157 0-111.063 0-2.75 0-5.073-2.323-5.073-5.074v-2.015c0-2.75 2.323-5.074 5.073-5.074h111.063c2.75 0 5.073 2.323 5.073 5.074zm-109.018 36.514c-.558 0-1.012-.454-1.012-1.012v-12.402c0-.558.454-1.012 1.012-1.012h96.826c.558 0 1.012.454 1.012 1.012v12.402c0 .558-.454 1.012-1.012 1.012zm33.054-106.765h30.72c26.239 0 47.586 21.347 47.586 47.586 0 1.428-1.162 2.59-2.591 2.59-57.308 0-31.352 0-120.711 0-1.429 0-2.591-1.162-2.591-2.591 0-26.238 21.348-47.585 47.587-47.585z" data-original="#050402" class="active-path" data-old_color="#050402" fill="#0F0FBB"/><path d="m317.254 151.751c4.086 0 7.5-3.319 7.5-7.5 0-4.762-4.393-8.269-8.97-7.35-3.285.614-6.03 3.603-6.03 7.35 0 4.165 3.369 7.5 7.5 7.5z" data-original="#050402" class="active-path" data-old_color="#050402" fill="#0F0FBB"/><path d="m345.205 151.751c4.071 0 7.5-3.281 7.5-7.5 0-4.983-4.621-8.255-8.96-7.35-3.615.749-6.04 3.849-6.04 7.35 0 4.095 3.342 7.5 7.5 7.5z" data-original="#050402" class="active-path" data-old_color="#050402" fill="#0F0FBB"/><path d="m373.165 151.751c4.104 0 7.5-3.326 7.5-7.5 0-3.696-2.676-6.708-6.03-7.35-4.554-.94-8.97 2.572-8.97 7.35 0 4.219 3.432 7.5 7.5 7.5z" data-original="#050402" class="active-path" data-old_color="#050402" fill="#0F0FBB"/><path d="m105.421 201.826h100.225c4.143 0 7.5-3.358 7.5-7.5s-3.357-7.5-7.5-7.5h-100.225c-4.143 0-7.5 3.358-7.5 7.5s3.358 7.5 7.5 7.5z" data-original="#050402" class="active-path" data-old_color="#050402" fill="#0F0FBB"/><path d="m105.421 234.216h100.225c4.143 0 7.5-3.358 7.5-7.5s-3.357-7.5-7.5-7.5h-100.225c-4.143 0-7.5 3.358-7.5 7.5s3.358 7.5 7.5 7.5z" data-original="#050402" class="active-path" data-old_color="#050402" fill="#0F0FBB"/><path d="m105.421 266.607h100.225c4.143 0 7.5-3.358 7.5-7.5s-3.357-7.5-7.5-7.5h-100.225c-4.143 0-7.5 3.358-7.5 7.5s3.358 7.5 7.5 7.5z" data-original="#050402" class="active-path" data-old_color="#050402" fill="#0F0FBB"/><path d="m114.788 167.921h81.491c9.301 0 16.867-7.566 16.867-16.867v-17.644c0-9.301-7.566-16.867-16.867-16.867h-81.491c-9.3 0-16.866 7.566-16.866 16.867v17.644c-.001 9.301 7.566 16.867 16.866 16.867zm-1.867-34.51c0-1.03.837-1.867 1.866-1.867h81.491c1.029 0 1.867.837 1.867 1.867v17.644c0 1.029-.838 1.867-1.867 1.867h-81.491c-1.029 0-1.866-.837-1.866-1.867z" data-original="#050402" class="active-path" data-old_color="#050402" fill="#0F0FBB"/></g></g> </svg>
