<?xml version="1.0"?>
<svg xmlns="http://www.w3.org/2000/svg" id="Layer_5" enable-background="new 0 0 64 64" height="512px" viewBox="0 0 64 64" width="512px"><g><g><g><g><path d="m25 59h-20v-8h20z" fill="#f0bc5e" data-original="#F0BC5E"/></g></g><g><path d="m33 38h14v13h-14z" fill="#f0bc5e" data-original="#F0BC5E"/></g><g><path d="m63 1h-56v32h-6v30h50v-22h12zm-20.246 21.66 18.246-18.246v33.451zm-32.34-19.66h49.172l-20.172 20.172c-1.179 1.179-2.746 1.828-4.414 1.828s-3.235-.649-4.414-1.828zm-1.414 1.414 18.246 18.246-12.408 10.34h-5.838zm40 56.586h-46v-26h46zm-31.037-28 10.704-8.92.506.506c1.555 1.557 3.625 2.414 5.827 2.414s4.272-.857 5.828-2.414l.506-.506 17.904 14.92h-8.238v-6z" data-original="#000000" class="active-path" style="fill:#0F0FBB" data-old_color="#000000"/><path d="m41 49h2v2h-2z" data-original="#000000" class="active-path" style="fill:#0F0FBB" data-old_color="#000000"/><path d="m37 49h2v2h-2z" data-original="#000000" class="active-path" style="fill:#0F0FBB" data-old_color="#000000"/><path d="m45 49h2v2h-2z" data-original="#000000" class="active-path" style="fill:#0F0FBB" data-old_color="#000000"/><path d="m33 49h2v2h-2z" data-original="#000000" class="active-path" style="fill:#0F0FBB" data-old_color="#000000"/><path d="m33 45h14v2h-14z" data-original="#000000" class="active-path" style="fill:#0F0FBB" data-old_color="#000000"/><path d="m33 41h14v2h-14z" data-original="#000000" class="active-path" style="fill:#0F0FBB" data-old_color="#000000"/><path d="m33 37h14v2h-14z" data-original="#000000" class="active-path" style="fill:#0F0FBB" data-old_color="#000000"/><path d="m24 5h2v2h-2z" data-original="#000000" class="active-path" style="fill:#0F0FBB" data-old_color="#000000"/><path d="m28 5h2v2h-2z" data-original="#000000" class="active-path" style="fill:#0F0FBB" data-old_color="#000000"/><path d="m20 5h2v2h-2z" data-original="#000000" class="active-path" style="fill:#0F0FBB" data-old_color="#000000"/><path d="m16 5h2v2h-2z" data-original="#000000" class="active-path" style="fill:#0F0FBB" data-old_color="#000000"/><path d="m11 21h2v2h-2z" data-original="#000000" class="active-path" style="fill:#0F0FBB" data-old_color="#000000"/><path d="m11 25h2v2h-2z" data-original="#000000" class="active-path" style="fill:#0F0FBB" data-old_color="#000000"/><path d="m11 17h2v2h-2z" data-original="#000000" class="active-path" style="fill:#0F0FBB" data-old_color="#000000"/><path d="m11 29h2v2h-2z" data-original="#000000" class="active-path" style="fill:#0F0FBB" data-old_color="#000000"/><path d="m13 37h-8v8h8zm-2 6h-4v-4h4z" data-original="#000000" class="active-path" style="fill:#0F0FBB" data-old_color="#000000"/></g></g></g> </svg>
