<?xml version="1.0"?>
<svg xmlns="http://www.w3.org/2000/svg" height="512px" viewBox="-26 0 512 512.16486" width="512px" class=""><g><path d="m3.1875 268.070312c.015625.089844-.023438.175782-.003906.269532.015625.09375.085937.171875.101562.273437 8.566406 51.046875 34.085938 97.71875 72.433594 132.484375-10.796875 8.460938-23.625 13.945313-37.203125 15.902344-12.339844 2.035156-21.382813 12.714844-21.363281 25.222656v44.34375c.015625 14.128906 11.46875 25.582032 25.601562 25.597656h375.464844c14.132812-.015624 25.585938-11.46875 25.601562-25.597656v-44.34375c.023438-12.503906-9.019531-23.183594-21.359374-25.222656-13.578126-1.957031-26.40625-7.441406-37.203126-15.902344 38.351563-34.765625 63.867188-81.4375 72.433594-132.484375.023438-.101562.085938-.171875.101563-.273437.019531-.101563-.015625-.179688-.003907-.269532 14.945313-90.167968-24.820312-180.640624-101.351562-230.601562-76.535156-49.957031-175.359375-49.957031-251.890625 0-76.53125 49.960938-116.296875 140.433594-101.355469 230.601562zm368.890625 144.261719c13.492187 11.527344 29.984375 18.984375 47.550781 21.503907h.007813c4.109375.675781 7.121093 4.226562 7.117187 8.390624v10.203126h-85.332031c-4.714844 0-8.535156 3.824218-8.535156 8.535156 0 4.710937 3.820312 8.535156 8.535156 8.535156h85.332031v17.066406c-.003906 4.710938-3.824218 8.527344-8.535156 8.53125h-375.464844c-4.710937-.003906-8.527344-3.820312-8.535156-8.53125v-17.066406h85.335938c4.710937 0 8.53125-3.824219 8.53125-8.535156 0-4.710938-3.820313-8.535156-8.53125-8.535156h-85.335938v-10.207032c-.003906-4.164062 3.015625-7.71875 7.128906-8.390625 17.566406-2.519531 34.054688-9.976562 47.546875-21.503906.9375.730469 1.945313 1.347656 2.890625 2.0625 3.457032 2.617187 6.988282 5.136719 10.59375 7.566406 1.753906 1.171875 3.535156 2.289063 5.320313 3.410157 3.742187 2.367187 7.539062 4.648437 11.421875 6.800781 1.074218.59375 2.144531 1.183593 3.226562 1.757812 4.574219 2.441407 9.25 4.707031 13.996094 6.839844.8125.363281 1.609375.746094 2.425781 1.101563 5.265625 2.292968 10.632813 4.386718 16.101563 6.28125.527344.183593 1.054687.359374 1.585937.539062 11.453125 3.898438 23.199219 6.882812 35.125 8.921875.425781.070313.851563.15625 1.28125.226563 5.695313.941406 11.457031 1.667968 17.289063 2.175781.949218.085937 1.898437.144531 2.847656.214843 5.785156.445313 11.597656.738282 17.488281.738282 5.886719 0 11.703125-.292969 17.480469-.730469.949219-.074219 1.898438-.132813 2.847656-.21875 5.828125-.511719 11.59375-1.234375 17.289063-2.171875.425781-.070312.855469-.15625 1.28125-.230469 11.925781-2.039062 23.671875-5.019531 35.125-8.917969.53125-.179687 1.058593-.355468 1.585937-.539062 5.460938-1.902344 10.828125-4 16.101563-6.285156.8125-.351563 1.613281-.734375 2.425781-1.097656 4.746094-2.132813 9.425781-4.398438 13.992188-6.839844 1.085937-.574219 2.15625-1.167969 3.230468-1.757813 3.878906-2.15625 7.679688-4.4375 11.421875-6.800781 1.785157-1.125 3.566407-2.242188 5.320313-3.414062 3.605468-2.421876 7.136718-4.941407 10.59375-7.5625.953125-.71875 1.957031-1.335938 2.894531-2.066407zm-8.085937-15.542969c-2.769532 2.222657-5.585938 4.375-8.449219 6.453126-1.691407 1.230468-3.382813 2.460937-5.113281 3.644531-3.789063 2.574219-7.652344 5.019531-11.589844 7.339843-1.347656.800782-2.710938 1.578126-4.078125 2.347657-4.4375 2.484375-8.933594 4.851562-13.527344 7.007812-.746094.351563-1.511719.683594-2.261719 1.023438-10.742187 4.914062-21.871094 8.929687-33.273437 12.007812l-.089844.023438c-5.675781 1.519531-11.425781 2.773437-17.21875 3.820312-.53125.097657-1.0625.195313-1.597656.285157-5.578125.96875-11.195313 1.710937-16.859375 2.230468-.722656.066406-1.449219.105469-2.175782.171875-5.730468.460938-11.488281.753907-17.269531.753907-5.785156 0-11.542969-.292969-17.273437-.757813-.726563-.0625-1.453125-.101563-2.179688-.171875-5.65625-.519531-11.277344-1.261719-16.859375-2.230469-.53125-.089843-1.0625-.1875-1.59375-.285156-5.792969-1.046875-11.542969-2.304687-17.21875-3.820313l-.089843-.027343c-11.402344-3.074219-22.527344-7.089844-33.269532-12.003907-.75-.339843-1.515625-.671874-2.261718-1.023437-4.59375-2.15625-9.09375-4.523437-13.527344-7.003906-1.367188-.769531-2.730469-1.550781-4.078125-2.351563-3.9375-2.316406-7.800781-4.765625-11.589844-7.339844-1.730469-1.179687-3.421875-2.414062-5.113281-3.640624-2.871094-2.078126-5.6875-4.230469-8.449219-6.457032-38.660156-31.019531-65.332031-74.519531-75.433594-123.042968 28.882813-5.066407 58.882813-9.09375 89.46875-11.984376v88.273438c.011719 9.421875 7.644531 17.054688 17.066407 17.066406h25.601562v8.535156c.011719 9.417969 7.644531 17.054688 17.066406 17.066407h153.601563c9.417969-.011719 17.054687-7.648438 17.066406-17.066407v-114.628906c33.589844 2.929688 66.453125 7.210938 98 12.75-10.105469 48.523438-36.773437 92.019532-75.429687 123.035156zm-51.699219-251.550781h-22.074219v-22.074219zm-22.074219 17.058594h34.136719v213.335937h-153.601563v-264.535156h102.398438v34.132813c.011718 9.421875 7.648437 17.058593 17.066406 17.066406zm-136.53125 187.734375h-25.601562v-204.800781h25.601562zm76.800781-332.800781c61.203125-.113281 119.496094 26.117187 160.007813 71.992187 40.511718 45.875 59.324218 106.964844 51.640625 167.683594-32.425781-5.6875-66.207031-10.066406-100.714844-13.042969v-90.097656c0-.1875-.097656-.351563-.109375-.539063-.046875-.746093-.191406-1.484374-.433594-2.191406-.082031-.273437-.179687-.542968-.289062-.808594-.402344-.925781-.96875-1.769531-1.667969-2.496093l-51.203125-51.199219c-.730469-.707031-1.585938-1.28125-2.519531-1.683594-.238281-.109375-.480469-.175781-.730469-.261718-.746094-.261719-1.527344-.417969-2.316406-.460938-.160156-.007812-.304688-.09375-.464844-.09375h-110.933594c-9.421875.011719-17.054687 7.644531-17.066406 17.066406v17.066406h-25.601562c-9.421876.011719-17.054688 7.644532-17.066407 17.066407v99.378906c-31.503906 2.925781-62.421875 7.0625-92.183593 12.285156-7.679688-60.714843 11.132812-121.804687 51.644531-167.675781 40.511719-45.875 98.804687-72.101562 160.007812-71.988281zm0 0" data-original="#000000" class="active-path" data-old_color="#000000" fill="#0F0FBB"/><path d="m179.285156 58.429688c.785156.003906 1.570313-.105469 2.324219-.324219 15.902344-4.484375 32.351563-6.75 48.878906-6.742188 4.710938 0 8.53125-3.820312 8.53125-8.53125 0-4.714843-3.820312-8.535156-8.53125-8.535156-18.097656-.011719-36.105469 2.476563-53.523437 7.394531-4.09375 1.160156-6.703125 5.164063-6.117188 9.378906.582032 4.214844 4.183594 7.355469 8.4375 7.359376zm0 0" data-original="#000000" class="active-path" data-old_color="#000000" fill="#0F0FBB"/><path d="m93.15625 111.097656c2.371094.003906 4.632812-.980468 6.242188-2.714844 11.910156-12.785156 25.617187-23.761718 40.695312-32.585937 2.632812-1.539063 4.242188-4.363281 4.226562-7.414063-.015624-3.050781-1.660156-5.855468-4.308593-7.367187-2.648438-1.507813-5.902344-1.492187-8.535157.050781-16.511718 9.664063-31.523437 21.683594-44.5625 35.683594-2.316406 2.484375-2.9375 6.105469-1.582031 9.21875s4.429688 5.128906 7.824219 5.128906zm0 0" data-original="#000000" class="active-path" data-old_color="#000000" fill="#0F0FBB"/><path d="m437.789062 28.265625-17.066406 17.066406c-2.21875 2.140625-3.109375 5.316407-2.328125 8.296875.78125 2.984375 3.109375 5.316406 6.09375 6.097656s6.15625-.109374 8.296875-2.328124l17.066406-17.066407c2.21875-2.144531 3.109376-5.316406 2.328126-8.300781-.78125-2.980469-3.109376-5.3125-6.09375-6.09375-2.984376-.78125-6.15625.109375-8.296876 2.328125zm0 0" data-original="#000000" class="active-path" data-old_color="#000000" fill="#0F0FBB"/><path d="m401.152344 42.832031c4.714844 0 8.535156-3.820312 8.535156-8.535156v-8.53125c0-4.714844-3.820312-8.535156-8.535156-8.535156-4.710938 0-8.53125 3.820312-8.53125 8.535156v8.53125c0 4.714844 3.820312 8.535156 8.53125 8.535156zm0 0" data-original="#000000" class="active-path" data-old_color="#000000" fill="#0F0FBB"/><path d="m435.285156 76.964844c0 4.710937 3.824219 8.535156 8.535156 8.535156h8.535157c4.710937 0 8.53125-3.824219 8.53125-8.535156 0-4.710938-3.820313-8.535156-8.53125-8.535156h-8.535157c-4.710937 0-8.535156 3.824218-8.535156 8.535156zm0 0" data-original="#000000" class="active-path" data-old_color="#000000" fill="#0F0FBB"/><path d="m34.21875 59.898438c3.453125 0 6.5625-2.078126 7.882812-5.269532 1.320313-3.1875.589844-6.855468-1.847656-9.296875l-17.066406-17.066406c-3.347656-3.234375-8.671875-3.1875-11.960938.101563-3.292968 3.292968-3.339843 8.617187-.105468 11.964843l17.066406 17.066407c1.597656 1.601562 3.769531 2.503906 6.03125 2.5zm0 0" data-original="#000000" class="active-path" data-old_color="#000000" fill="#0F0FBB"/><path d="m68.355469 34.296875v-8.53125c0-4.714844-3.820313-8.535156-8.535157-8.535156-4.710937 0-8.535156 3.820312-8.535156 8.535156v8.53125c0 4.714844 3.824219 8.535156 8.535156 8.535156 4.714844 0 8.535157-3.820312 8.535157-8.535156zm0 0" data-original="#000000" class="active-path" data-old_color="#000000" fill="#0F0FBB"/><path d="m.0859375 76.964844c0 4.710937 3.8203125 8.535156 8.5351565 8.535156h8.53125c4.714844 0 8.535156-3.824219 8.535156-8.535156 0-4.710938-3.820312-8.535156-8.535156-8.535156h-8.53125c-4.714844 0-8.5351565 3.824218-8.5351565 8.535156zm0 0" data-original="#000000" class="active-path" data-old_color="#000000" fill="#0F0FBB"/><path d="m233.1875 196.875c-3.390625-1.144531-7.132812-.042969-9.363281 2.757812l-18.9375 23.671876v-43.941407c0-4.710937-3.820313-8.53125-8.53125-8.53125-4.714844 0-8.535157 3.820313-8.535157 8.53125v68.269531c0 .160157.085938.292969.089844.453126.019532 1.648437.613282 3.238281 1.675782 4.496093.332031.492188.710937.945313 1.136718 1.359375.121094.105469.171875.253906.300782.355469.402343.273437.832031.507813 1.277343.703125.316407.207031.648438.386719.988281.546875.976563.394531 2.015626.601563 3.066407.617187h102.398437c4.710938 0 8.53125-3.820312 8.53125-8.53125 0-4.714843-3.820312-8.535156-8.53125-8.535156h-84.644531l19.324219-24.15625 19.953125 6.648438c2.65625.894531 5.582031.421875 7.820312-1.265625l34.132813-25.597657c3.769531-2.828124 4.535156-8.179687 1.707031-11.949218-2.828125-3.769532-8.175781-4.535156-11.945313-1.707032l-30.554687 22.917969zm0 0" data-original="#000000" class="active-path" data-old_color="#000000" fill="#0F0FBB"/><path d="m298.753906 273.230469h-102.398437c-4.714844 0-8.535157 3.820312-8.535157 8.535156 0 4.710937 3.820313 8.53125 8.535157 8.53125h102.398437c4.710938 0 8.53125-3.820313 8.53125-8.53125 0-4.714844-3.820312-8.535156-8.53125-8.535156zm0 0" data-original="#000000" class="active-path" data-old_color="#000000" fill="#0F0FBB"/><path d="m196.355469 324.429688h34.132812c4.710938 0 8.53125-3.820313 8.53125-8.53125 0-4.714844-3.820312-8.535157-8.53125-8.535157h-34.132812c-4.714844 0-8.535157 3.820313-8.535157 8.535157 0 4.710937 3.820313 8.53125 8.535157 8.53125zm0 0" data-original="#000000" class="active-path" data-old_color="#000000" fill="#0F0FBB"/><path d="m264.621094 341.5h-68.265625c-4.714844 0-8.535157 3.820312-8.535157 8.53125 0 4.714844 3.820313 8.535156 8.535157 8.535156h68.265625c4.710937 0 8.53125-3.820312 8.53125-8.535156 0-4.710938-3.820313-8.53125-8.53125-8.53125zm0 0" data-original="#000000" class="active-path" data-old_color="#000000" fill="#0F0FBB"/><path d="m196.355469 153.765625h51.199219c4.710937 0 8.53125-3.820313 8.53125-8.535156 0-4.710938-3.820313-8.53125-8.53125-8.53125h-51.199219c-4.714844 0-8.535157 3.820312-8.535157 8.53125 0 4.714843 3.820313 8.535156 8.535157 8.535156zm0 0" data-original="#000000" class="active-path" data-old_color="#000000" fill="#0F0FBB"/></g> </svg>
