<?xml version="1.0"?>
<svg xmlns="http://www.w3.org/2000/svg" id="Layer_2" height="512px" viewBox="0 0 128 128" width="512px" data-name="Layer 2"><g><path d="m123.25 86.621a4.755 4.755 0 0 0 4.75-4.75v-70a4.755 4.755 0 0 0 -4.75-4.75h-118.5a4.755 4.755 0 0 0 -4.75 4.75v70a4.755 4.755 0 0 0 4.75 4.75h6.833v22.591h-9.833a1.75 1.75 0 0 0 -1.75 1.75v8.167a1.75 1.75 0 0 0 1.75 1.75h124.5a1.75 1.75 0 0 0 1.75-1.75v-8.167a1.75 1.75 0 0 0 -1.75-1.75h-9.833v-22.591zm-119.75-4.75v-70a1.251 1.251 0 0 1 1.25-1.25h118.5a1.251 1.251 0 0 1 1.25 1.25v70a1.251 1.251 0 0 1 -1.25 1.25h-118.5a1.251 1.251 0 0 1 -1.25-1.25zm19.75 27.341v-22.591h81.5v22.591zm-8.167-22.591h4.667v22.591h-4.667zm109.417 30.758h-121v-4.667h121zm-11.583-8.167h-4.667v-22.591h4.667z" data-original="#000000" class="active-path" data-old_color="#000000" fill="#0F0FBB"/><path d="m24.97 62.231c-.32 1.1.5 1.783 1.184 2.469s1.372 1.5 2.469 1.186a26.147 26.147 0 0 0 5.839-2.51l4.849 14.224a1.749 1.749 0 0 0 1.26 1.14 1.716 1.716 0 0 0 .4.046 1.748 1.748 0 0 0 1.237-.513l3.8-3.8a1.75 1.75 0 0 0 .488-1.529l-2.935-17.278 11.026-10.583.413 1.179-3.016 3.016a3.493 3.493 0 0 0 0 4.93l2.27 2.269a3.473 3.473 0 0 0 4.451.4l5.267 15.082a1.75 1.75 0 0 0 2.89.66l4.753-4.754a1.75 1.75 0 0 0 .473-1.608l-3.343-15.39 2.906-2.906a1.75 1.75 0 0 0 -2.475-2.475l-1.314 1.314-1.1-5.083 2.027-2.028a1.75 1.75 0 0 0 -2.476-2.475l-.435.435-.612-2.816 6.854-6.579a12.307 12.307 0 0 0 3.459-6.914l.286-1.993a3.847 3.847 0 0 0 -4.354-4.354l-1.993.286a12.331 12.331 0 0 0 -6.94 3.484l-6.558 6.829-2.82-.612.436-.435a1.75 1.75 0 0 0 -2.475-2.475l-2.023 2.03-5.083-1.1 1.314-1.314a1.75 1.75 0 1 0 -2.474-2.486l-2.906 2.91-15.389-3.342a1.742 1.742 0 0 0 -1.6.472l-4.753 4.754a1.75 1.75 0 0 0 .66 2.89l15.084 5.268a3.488 3.488 0 0 0 .393 4.45l2.27 2.27a3.486 3.486 0 0 0 4.931 0l3.015-3.015 1.179.412-10.589 11.025-17.284-2.928a1.739 1.739 0 0 0 -1.53.488l-3.8 3.8a1.749 1.749 0 0 0 .673 2.894l14.231 4.845a26.142 26.142 0 0 0 -2.51 5.838zm31.759-8.231-2.271-2.251 1.822-1.819 1.168 3.344zm9.628 14.166-5.245-15.016-2.446-7-1.3-3.725 4.934-4.745 6.165 28.381zm-41.563-45.775 28.381 6.165-4.738 4.936-3.726-1.3-7-2.444-15.024-5.248zm14.329 14.009-2.27-2.251.736-.735 1.688.586 1.656.578zm3.764 36.246-1.17 1.171-4.254-12.485a40.093 40.093 0 0 0 3.045-2.732zm22.188-51.43a8.786 8.786 0 0 1 4.937-2.469l1.988-.289a.348.348 0 0 1 .393.393l-.286 1.994a8.762 8.762 0 0 1 -2.444 4.91l-29.2 28.026c-1.139 1.026-2.215 2.133-3.325 3.192a23.305 23.305 0 0 1 -8.5 5.235 22.677 22.677 0 0 1 5.082-8.338l16.464-17.144 7.683-8zm-35.552 32.176-12.481-4.253 1.17-1.171 14.046 2.38a40.1 40.1 0 0 0 -2.735 3.044z" data-original="#000000" class="active-path" data-old_color="#000000" fill="#0F0FBB"/><path d="m88.125 29.129h28.375a1.75 1.75 0 0 0 0-3.5h-28.375a1.75 1.75 0 0 0 0 3.5z" data-original="#000000" class="active-path" data-old_color="#000000" fill="#0F0FBB"/><path d="m88.125 42.205h28.375a1.75 1.75 0 0 0 0-3.5h-28.375a1.75 1.75 0 0 0 0 3.5z" data-original="#000000" class="active-path" data-old_color="#000000" fill="#0F0FBB"/><path d="m88.125 55.28h28.375a1.75 1.75 0 0 0 0-3.5h-28.375a1.75 1.75 0 0 0 0 3.5z" data-original="#000000" class="active-path" data-old_color="#000000" fill="#0F0FBB"/><path d="m88.125 68.355h28.375a1.75 1.75 0 0 0 0-3.5h-28.375a1.75 1.75 0 0 0 0 3.5z" data-original="#000000" class="active-path" data-old_color="#000000" fill="#0F0FBB"/></g> </svg>
