<?xml version="1.0"?>
<svg xmlns="http://www.w3.org/2000/svg" xmlns:xlink="http://www.w3.org/1999/xlink" version="1.1" id="Capa_1" x="0px" y="0px" viewBox="0 0 480 480" style="enable-background:new 0 0 480 480;" xml:space="preserve" width="512px" height="512px"><g><g>
	<g>
		<path d="M344,364.008c-13.255,0-24,10.745-24,24s10.745,24,24,24s24-10.745,24-24S357.255,364.008,344,364.008z M344,396.008    c-4.418,0-8-3.582-8-8s3.582-8,8-8s8,3.582,8,8S348.418,396.008,344,396.008z" data-original="#000000" class="active-path" data-old_color="#000000" fill="#0F0FBB"/>
	</g>
</g><g>
	<g>
		<path d="M136,364.008c-13.255,0-24,10.745-24,24s10.745,24,24,24s24-10.745,24-24S149.255,364.008,136,364.008z M136,396.008    c-4.418,0-8-3.582-8-8s3.582-8,8-8s8,3.582,8,8S140.418,396.008,136,396.008z" data-original="#000000" class="active-path" data-old_color="#000000" fill="#0F0FBB"/>
	</g>
</g><g>
	<g>
		<path d="M472,364.008h-8v-72c-0.051-0.612-0.171-1.216-0.36-1.8h0.152L432,155.072v-39.064c0-4.418-3.582-8-8-8H320v-64    c0-4.418-3.582-8-8-8H24c-4.418,0-8,3.582-8,8v320H8c-4.418,0-8,3.582-8,8v32c0,4.418,3.582,8,8,8h32c4.418,0,8-3.582,8-8v-8    h32.64c4.391,30.574,32.736,51.8,63.311,47.409c24.574-3.529,43.88-22.836,47.409-47.409h97.28    c4.391,30.574,32.736,51.8,63.311,47.409c24.574-3.529,43.88-22.836,47.409-47.409H432v8c0,4.418,3.582,8,8,8h32    c4.418,0,8-3.582,8-8v-32C480,367.589,476.418,364.008,472,364.008z M424,190.944l21.896,93.064H424V190.944z M32,52.008h272v16    H32V52.008z M32,84.008h272v168H32V84.008z M32,268.008h272v16H32V268.008z M32,396.008H16v-16h16V396.008z M136,428.008    c-22.091,0-40-17.909-40-40c0-22.091,17.909-40,40-40s40,17.909,40,40C175.974,410.088,158.08,427.981,136,428.008z M344,428.008    c-22.091,0-40-17.909-40-40c0-22.091,17.909-40,40-40c22.091,0,40,17.909,40,40C383.974,410.088,366.08,427.981,344,428.008z     M432,372.008v8h-32.64c-4.391-30.575-32.736-51.8-63.311-47.409c-24.574,3.529-43.88,22.835-47.409,47.409h-97.28    c-4.391-30.575-32.736-51.8-63.311-47.409c-24.574,3.529-43.88,22.835-47.409,47.409H48v-8c0-4.418-3.582-8-8-8h-8v-64h280    c4.418,0,8-3.582,8-8v-168h96v24h-64c-4.418,0-8,3.582-8,8v136c0,4.418,3.582,8,8,8h96v64h-8    C435.582,364.008,432,367.589,432,372.008z M408,164.008v120h-48v-120H408z M464,396.008h-16v-16h16V396.008z" data-original="#000000" class="active-path" data-old_color="#000000" fill="#0F0FBB"/>
	</g>
</g><g>
	<g>
		<rect x="416" y="316.008" width="16" height="16" data-original="#000000" class="active-path" data-old_color="#000000" fill="#0F0FBB"/>
	</g>
</g><g>
	<g>
		<path d="M264,203.128c10.232-10.454,15.974-24.492,16-39.12c0.044-30.928-24.992-56.036-55.92-56.08s-56.036,24.992-56.08,55.92    c-0.021,14.682,5.725,28.785,16,39.272v8.888h-16v16h112v-16h-16V203.128z M253.816,190.592c-0.994,1.111-2.049,2.167-3.16,3.16    c-1.69,1.517-2.656,3.681-2.656,5.952v12.304h-16V191.32l21.656-21.656l-11.312-11.312L224,176.696l-18.344-18.344l-11.312,11.312    L216,191.32v20.688h-16v-12.296c0-2.275-0.969-4.443-2.664-5.96c-16.469-14.724-17.884-40.011-3.16-56.48    c14.724-16.469,40.011-17.884,56.48-3.16C267.125,148.835,268.54,174.122,253.816,190.592z" data-original="#000000" class="active-path" data-old_color="#000000" fill="#0F0FBB"/>
	</g>
</g><g>
	<g>
		<rect x="72" y="132.008" width="16" height="16" data-original="#000000" class="active-path" data-old_color="#000000" fill="#0F0FBB"/>
	</g>
</g><g>
	<g>
		<rect x="104" y="132.008" width="40" height="16" data-original="#000000" class="active-path" data-old_color="#000000" fill="#0F0FBB"/>
	</g>
</g><g>
	<g>
		<rect x="56" y="164.008" width="88" height="16" data-original="#000000" class="active-path" data-old_color="#000000" fill="#0F0FBB"/>
	</g>
</g><g>
	<g>
		<rect x="56" y="196.008" width="72" height="16" data-original="#000000" class="active-path" data-old_color="#000000" fill="#0F0FBB"/>
	</g>
</g></g> </svg>
