<?xml version="1.0"?>
<svg xmlns="http://www.w3.org/2000/svg" id="Layer_1" enable-background="new 0 0 256 256" height="512px" viewBox="0 0 256 256" width="512px"><g><path d="m238 193h-220c-5.523 0-10-4.477-10-10v-165c0-5.523 4.477-10 10-10h220c5.523 0 10 4.477 10 10v165c0 5.523-4.477 10-10 10z" fill="#f9a7a7" data-original="#F9A7A7"/><path d="m18 181v-161c0-1.105.895-2 2-2h216c1.105 0 2 .895 2 2v161c0 1.105-.895 2-2 2h-216c-1.105 0-2-.895-2-2z" fill="#e0ebfc" data-original="#E0EBFC" class=""/><path d="m238 195h-220c-6.617 0-12-5.383-12-12v-165c0-6.617 5.383-12 12-12h220c6.617 0 12 5.383 12 12v165c0 6.617-5.383 12-12 12zm-220-185c-4.411 0-8 3.589-8 8v165c0 4.411 3.589 8 8 8h220c4.411 0 8-3.589 8-8v-165c0-4.411-3.589-8-8-8z" fill="#3762cc" data-original="#3762CC"/><path d="m119.5 103.949h-75.604c-2.209 0-4-1.791-4-4v-58.922c0-2.209 1.791-4 4-4h75.604c2.209 0 4 1.791 4 4v58.922c0 2.209-1.791 4-4 4z" fill="#6bdddd" data-original="#6BDDDD"/><path d="m106.618 57.435c-.008-.038-.017-.075-.027-.113-.044-.163-.101-.321-.177-.469-.009-.017-.02-.032-.029-.049-.074-.136-.162-.263-.26-.382-.023-.027-.044-.055-.068-.082-.112-.125-.236-.238-.373-.337-.009-.007-.016-.016-.026-.023-.018-.013-.039-.019-.058-.031-.124-.082-.256-.153-.396-.212-.028-.012-.054-.027-.083-.037-.014-.005-.026-.013-.04-.018l-21.73-7.767c-.523-.188-1.097-.188-1.621 0l-21.729 7.765c-.014.005-.026.013-.04.018-.029.011-.055.026-.084.038-.14.059-.272.131-.396.213-.018.012-.039.018-.057.031-.009.006-.016.016-.025.023-.137.1-.262.213-.374.338-.024.026-.044.054-.067.081-.099.12-.187.247-.261.384-.009.016-.02.031-.029.048-.076.149-.133.307-.177.47-.01.038-.018.075-.027.112-.037.167-.062.338-.062.514v26.44c0 1.018.64 1.925 1.598 2.268l21.731 7.767c.013.004.027.006.04.01.086.029.174.05.262.069.04.009.079.021.119.028.126.021.254.033.383.033h.005.005c.128 0 .256-.012.383-.033.041-.007.08-.019.12-.028.088-.019.175-.039.26-.068.014-.005.028-.006.041-.011l21.73-7.767c.958-.343 1.598-1.25 1.598-2.268v-26.44c.003-.178-.022-.348-.059-.515zm-24.076-4.696 14.575 5.209-5.067 1.811-9.508 3.398-14.575-5.209zm-19.323 8.628 5.447 1.947 11.467 4.099v21.325l-16.914-6.045zm38.645 21.325-16.914 6.045v-21.325l13.804-4.934 3.11-1.112z" fill="#f9a7a7" data-original="#F9A7A7"/><path d="m236 185h-216c-2.206 0-4-1.794-4-4v-161c0-2.206 1.794-4 4-4h216c2.206 0 4 1.794 4 4v161c0 2.206-1.794 4-4 4zm-216-165v161.002l216-.002v-161z" fill="#3762cc" data-original="#3762CC"/><path d="m72.958 128.227h-3.618c-.008 0-.016-.002-.023-.002l-.001.002h-23.799c-6.287 0-11.383 5.097-11.383 11.384v5.71 1.621 3.003 10.789h.531 6.16 43.516v-10.789-3.003-1.621-5.71c0-6.288-5.096-11.384-11.383-11.384z" fill="#e0ebfc" data-original="#E0EBFC" class=""/><path d="m81.7 95.81c-.048 0-.094.006-.141.007v-2.09c0-12.217-9.993-22.12-22.321-22.12-12.328 0-22.321 9.903-22.321 22.12v2.09c-.047-.001-.093-.007-.141-.007-3.761 0-6.81 3.021-6.81 6.748s3.049 6.748 6.81 6.748c.247 0 .49-.015.731-.04 2.303 9.786 11.155 17.078 21.731 17.078 10.576 0 19.428-7.292 21.731-17.078.24.025.484.04.731.04 3.761 0 6.81-3.021 6.81-6.748-.001-3.727-3.049-6.748-6.81-6.748z" fill="#f9cfcf" data-original="#F9CFCF"/><path d="m48.146 106.714c-1.486 0-2.695-1.209-2.695-2.694v-4.491c0-1.486 1.209-2.695 2.695-2.695s2.694 1.209 2.694 2.695v4.491c0 1.485-1.209 2.694-2.694 2.694z" fill="#3762cc" data-original="#3762CC"/><path d="m70.224 106.714c-1.486 0-2.695-1.209-2.695-2.694v-4.491c0-1.486 1.209-2.695 2.695-2.695s2.694 1.209 2.694 2.695v4.491c.001 1.485-1.208 2.694-2.694 2.694z" fill="#3762cc" data-original="#3762CC"/><path d="m59.237 128.345c-10.818 0-20.164-6.944-23.261-17.073-4.484-.402-8.011-4.156-8.011-8.713 0-4.19 2.982-7.703 6.95-8.552v-.279c0-13.3 10.91-24.12 24.321-24.12s24.321 10.82 24.321 24.12v.279c3.968.85 6.951 4.362 6.951 8.553 0 4.557-3.526 8.311-8.012 8.713-3.094 10.128-12.439 17.072-23.259 17.072zm-21.729-21.078c.917 0 1.73.63 1.945 1.542 2.153 9.147 10.289 15.536 19.784 15.536 9.496 0 17.632-6.389 19.784-15.536.231-.981 1.15-1.641 2.157-1.531.171.018.345.029.521.029 2.652 0 4.811-2.13 4.811-4.749 0-2.607-2.139-4.73-4.775-4.749-.076.003-.142.007-.176.007-.522 0-1.025-.205-1.399-.571-.384-.376-.601-.891-.601-1.429v-2.09c0-11.094-9.116-20.12-20.321-20.12s-20.321 9.026-20.321 20.12v2.09c0 .538-.217 1.053-.601 1.429s-.876.597-1.441.571c-.031 0-.126-.005-.158-.007-2.593.001-4.75 2.131-4.75 4.75s2.157 4.749 4.81 4.749c.176 0 .35-.011.521-.029.069-.008.14-.012.21-.012z" fill="#3762cc" data-original="#3762CC"/><path d="m54.57 92.023h-23.13c-.814 0-1.475-.66-1.475-1.475v-5.902c0-11.121 9.015-20.136 20.136-20.136h10.736c3.054 0 5.53 2.476 5.53 5.53v10.186c0 6.515-5.281 11.797-11.797 11.797z" fill="#4671c6" data-original="#4671C6"/><path d="m87.035 92.023h-8.871c-6.515 0-11.797-5.282-11.797-11.797v-10.186c0-3.054 2.476-5.53 5.53-5.53 9.175 0 16.612 7.438 16.612 16.612v9.426c0 .815-.66 1.475-1.474 1.475z" fill="#4671c6" data-original="#4671C6"/><path d="m59.238 126.345c-3.647 0-7.089-.868-10.129-2.405v3.866c0 5.592 4.533 10.126 10.126 10.126s10.126-4.533 10.126-10.126v-3.863c-3.038 1.535-6.478 2.402-10.123 2.402z" fill="#f9cfcf" data-original="#F9CFCF"/><path d="m59.194 132.837-4.56 4.586 1.558 5.105h3.002.047 3.003l1.558-5.105-4.561-4.586z" fill="#f9a7a7" data-original="#F9A7A7"/><path d="m62.244 144.528h-6.053c-.88 0-1.656-.575-1.913-1.417l-1.558-5.105c-.215-.705-.024-1.471.495-1.994l4.561-4.586c.375-.377.886-.59 1.418-.59h.047c.532 0 1.043.212 1.418.59l4.561 4.586c.52.522.71 1.289.495 1.994l-1.558 5.105c-.257.842-1.033 1.417-1.913 1.417zm-4.572-4h3.092l.775-2.543-2.321-2.334-2.321 2.334z" fill="#3762cc" data-original="#3762CC"/><path d="m64.54 160.734-2.312-18.206h-6.02l-2.312 18.206z" fill="#f9a7a7" data-original="#F9A7A7"/><path d="m54.57 94.023h-23.13c-1.916 0-3.475-1.559-3.475-3.475v-5.902c0-12.206 9.93-22.137 22.136-22.137h10.736c4.151 0 7.529 3.378 7.529 7.53v10.187c.001 7.607-6.188 13.797-13.796 13.797zm-22.604-4h22.604c5.402 0 9.797-4.395 9.797-9.797v-10.186c0-1.946-1.583-3.53-3.529-3.53h-10.736c-10 0-18.136 8.136-18.136 18.137z" fill="#3762cc" data-original="#3762CC"/><path d="m87.035 94.023h-8.871c-7.607 0-13.797-6.189-13.797-13.797v-10.186c0-4.152 3.378-7.53 7.53-7.53 10.263 0 18.612 8.35 18.612 18.612v9.426c.001 1.916-1.558 3.475-3.474 3.475zm-15.138-27.513c-1.946 0-3.53 1.583-3.53 3.53v10.187c0 5.402 4.395 9.797 9.797 9.797h8.346v-8.901c0-8.058-6.555-14.613-14.613-14.613z" fill="#3762cc" data-original="#3762CC"/><path d="m84.341 162.734h-50.207c-1.104 0-2-.896-2-2v-21.124c0-7.38 6.004-13.384 13.384-13.384h1.592v-2.287c0-.695.36-1.34.952-1.704.592-.365 1.328-.396 1.951-.081 2.872 1.453 5.976 2.19 9.225 2.19 3.247 0 6.35-.736 9.221-2.188.619-.313 1.358-.283 1.95.082.592.364.952 1.009.952 1.704v2.284h1.598c7.379 0 13.383 6.004 13.383 13.384v21.124c-.001 1.104-.897 2-2.001 2zm-48.207-4h46.207v-19.124c0-5.174-4.209-9.384-9.383-9.384h-3.618c-.542 0-1.062-.22-1.438-.61s-.579-.917-.561-1.459l.02-1.189c-5.186 1.83-11.065 1.83-16.251-.002l.019 1.177c.022.544-.178 1.074-.555 1.468-.377.393-.898.615-1.443.615h-3.612c-5.174 0-9.384 4.209-9.384 9.384v19.124z" fill="#3762cc" data-original="#3762CC"/><path d="m59.238 132.837-3.132 5.902c-.285.537-1.022.62-1.418.158l-8.754-10.187c-.247-.287-.278-.702-.076-1.023l.963-1.532c.301-.479.827-.77 1.393-.77h.896z" fill="#e0ebfc" data-original="#E0EBFC" class=""/><path d="m55.341 141.197c-.829 0-1.624-.36-2.171-.998l-8.754-10.186c-.823-.958-.925-2.319-.254-3.389l.965-1.535c.671-1.067 1.824-1.705 3.086-1.705h.896c.427 0 .842.136 1.186.389l10.128 7.452c.799.588 1.046 1.672.581 2.548l-3.132 5.901c-.443.836-1.271 1.399-2.213 1.504-.106.013-.212.019-.318.019zm-7.345-13.155 7.123 8.289 1.542-2.907-8.252-6.04z" fill="#3762cc" data-original="#3762CC"/><path d="m59.198 132.837 3.132 5.902c.285.537 1.022.62 1.418.158l8.754-10.187c.247-.287.278-.702.076-1.023l-.963-1.532c-.301-.479-.827-.77-1.393-.77h-.896z" fill="#e0ebfc" data-original="#E0EBFC" class=""/><path d="m63.095 141.197c-.105 0-.212-.006-.318-.018-.941-.105-1.769-.667-2.212-1.504l-3.133-5.9c-.465-.876-.218-1.961.581-2.549l10.129-7.452c.344-.253.759-.389 1.186-.389h.896c1.26 0 2.414.637 3.086 1.704l.964 1.534c.673 1.067.572 2.431-.253 3.39l-8.755 10.187c-.547.637-1.342.997-2.171.997zm-1.321-7.773 1.543 2.906 7.123-8.289-.457-.657z" fill="#3762cc" data-original="#3762CC"/><path d="m64.54 162.734h-10.644c-.574 0-1.121-.247-1.501-.678-.379-.431-.556-1.004-.483-1.574l2.313-18.206c.127-.999.978-1.748 1.984-1.748h6.021c1.007 0 1.857.749 1.984 1.748l2.312 18.206c.072.57-.104 1.143-.483 1.574-.382.431-.929.678-1.503.678zm-8.374-4h6.104l-1.804-14.206h-2.496z" fill="#3762cc" data-original="#3762CC"/><path d="m59.743 115.642h-1.011c-.606 0-1.139-.067-1.629-.205-.816-.23-1.536-.621-2.083-1.131-.723-.676-1.121-1.538-1.121-2.425 0-.552.447-1 1-1s1 .448 1 1c0 .42.265.756.486.963.313.292.75.523 1.261.667.311.087.665.13 1.086.13h1.011c.421 0 .775-.042 1.086-.13.51-.144.945-.375 1.26-.668.222-.207.486-.542.486-.963 0-.552.447-1 1-1s1 .448 1 1c0 .889-.398 1.75-1.121 2.425-.547.51-1.267.901-2.082 1.131-.49.139-1.022.206-1.629.206z" fill="#3762cc" data-original="#3762CC"/><path d="m97.402 248h-76c-2.761 0-5-2.239-5-5v-86.333c0-2.761 2.239-5 5-5h76c2.761 0 5 2.239 5 5v86.333c0 2.761-2.239 5-5 5z" fill="#a4c9ff" data-original="#A4C9FF" class=""/><path d="m26.363 223.667v-36.667c0-2.209 1.791-4 4-4h58c2.209 0 4 1.791 4 4v36.667c0 2.209-1.791 4-4 4h-58c-2.21 0-4-1.791-4-4z" fill="#f9cfcf" data-original="#F9CFCF"/><path d="m242 217.5h-57.5c-3.314 0-6-2.686-6-6v-157c0-3.314 2.686-6 6-6h57.5c3.314 0 6 2.686 6 6v157c0 3.314-2.686 6-6 6z" fill="#a4c9ff" data-original="#A4C9FF" class=""/><path d="m188.5 205.5v-145c0-1.105.895-2 2-2h45.5c1.105 0 2 .895 2 2v145c0 1.105-.895 2-2 2h-45.5c-1.105 0-2-.895-2-2z" fill="#e0ebfc" data-original="#E0EBFC" class=""/><path d="m178.5 243v-2c0-2.761 2.239-5 5-5h59.5c2.761 0 5 2.239 5 5v2c0 2.761-2.239 5-5 5h-59.5c-2.761 0-5-2.239-5-5z" fill="#a4c9ff" data-original="#A4C9FF" class=""/><path d="m160.036 85.817c-3.974-.6-6.852-3.06-7.178-7.081-.034-.419.306-.776.726-.776h3.144c.359 0 .657.264.717.618.238 1.399.938 2.493 2.155 3.07.486.231 1.049-.116 1.049-.654v-7.593c0-.326-.217-.61-.53-.699-3.572-1.01-7.292-2.33-7.292-7.91 0-4.445 2.925-7.563 7.214-8.23.351-.055.607-.36.607-.714v-2.043c0-.401.325-.726.726-.726h.969c.401 0 .726.325.726.726v1.999c0 .355.256.662.607.715 3.7.559 6.258 2.863 6.829 6.825.063.435-.282.826-.722.826h-3.114c-.348 0-.637-.249-.712-.588-.233-1.044-.83-1.991-1.751-2.596-.488-.32-1.137.017-1.137.601v7.302c0 .328.22.615.537.701 3.567.971 7.248 2.254 7.248 7.831 0 3.864-2.535 7.613-7.178 8.354-.35.056-.607.359-.607.714v2.044c0 .401-.325.726-.726.726h-.969c-.401 0-.726-.325-.726-.726v-2c.001-.358-.259-.663-.612-.716zm.613-18.163v-6.386c0-.491-.483-.856-.946-.693-1.535.539-2.555 1.845-2.555 3.968 0 1.965.991 3.046 2.448 3.761.484.238 1.053-.11 1.053-.65zm2.421 6.983v6.377c0 .527.543.874 1.027.664 1.592-.693 2.475-2.206 2.475-4.009 0-1.933-.993-2.98-2.453-3.684-.485-.233-1.049.114-1.049.652z" fill="#4671c6" data-original="#4671C6"/><path d="m168.409 162.816h-47.679c-1.393 0-2.523-1.129-2.523-2.523v-37.159c0-1.393 1.129-2.523 2.523-2.523h47.679c1.393 0 2.523 1.129 2.523 2.523v37.159c0 1.394-1.13 2.523-2.523 2.523z" fill="#f9cfcf" data-original="#F9CFCF"/><path d="m151.144 70.362-12.54-9.196c-.661-.484-1.591-.013-1.591.806v1.85c0 .552-.448 1-1 1h-20.847c-.552 0-1 .448-1 1v10.693c0 .552.448 1 1 1h20.847c.552 0 1 .448 1 1v1.85c0 .819.931 1.291 1.591.806l12.54-9.196c.545-.4.545-1.213 0-1.613z" fill="#f9a7a7" data-original="#F9A7A7"/><path d="m228.333 113.219h-28.667c-1.657 0-3-1.343-3-3v-37.922c0-1.657 1.343-3 3-3h28.667c1.657 0 3 1.343 3 3v37.921c0 1.657-1.343 3.001-3 3.001z" fill="#6bdddd" data-original="#6BDDDD"/><path d="m228.333 197.833h-28.667c-1.657 0-3-1.343-3-3v-66.536c0-1.657 1.343-3 3-3h28.667c1.657 0 3 1.343 3 3v66.536c0 1.657-1.343 3-3 3z" fill="#f9cfcf" data-original="#F9CFCF"/><path d="m78.667 147.687h-8.307c-.552 0-1-.448-1-1v-3.282c0-.552.448-1 1-1h8.306c.552 0 1 .448 1 1v3.282c.001.553-.447 1-.999 1z" fill="#b9befc" data-original="#B9BEFC" class="active-path" data-old_color="#b9befc" style="fill:#0F0FBB"/><path d="m204.25 217.5h18v18.5h-18z" fill="#a4c9ff" data-original="#A4C9FF" class=""/><path d="m242 219.5h-57.5c-4.411 0-8-3.589-8-8v-157c0-4.411 3.589-8 8-8h57.5c4.411 0 8 3.589 8 8v157c0 4.411-3.589 8-8 8zm-57.5-169c-2.206 0-4 1.794-4 4v157c0 2.206 1.794 4 4 4h57.5c2.206 0 4-1.794 4-4v-157c0-2.206-1.794-4-4-4z" fill="#3762cc" data-original="#3762CC"/><path d="m236 209.5h-45.5c-2.206 0-4-1.794-4-4v-145c0-2.206 1.794-4 4-4h45.5c2.206 0 4 1.794 4 4v145c0 2.206-1.794 4-4 4zm-45.5-149v145.002l45.5-.002v-145z" fill="#3762cc" data-original="#3762CC"/><path d="m243 250h-59.5c-3.859 0-7-3.14-7-7v-2c0-3.86 3.141-7 7-7h59.5c3.859 0 7 3.14 7 7v2c0 3.86-3.141 7-7 7zm-59.5-12c-1.654 0-3 1.346-3 3v2c0 1.654 1.346 3 3 3h59.5c1.654 0 3-1.346 3-3v-2c0-1.654-1.346-3-3-3z" fill="#3762cc" data-original="#3762CC"/><path d="m97.401 250h-76c-3.859 0-7-3.14-7-7v-86.333c0-3.86 3.141-7 7-7h76c3.859 0 7 3.14 7 7v86.333c0 3.86-3.14 7-7 7zm-76-96.333c-1.654 0-3 1.346-3 3v86.333c0 1.654 1.346 3 3 3h76c1.654 0 3-1.346 3-3v-86.333c0-1.654-1.346-3-3-3z" fill="#3762cc" data-original="#3762CC"/><path d="m108.804 168.801h-98.804c-1.105 0-2-.895-2-2v-13.134c0-1.105.895-2 2-2h98.804c1.105 0 2 .895 2 2v13.134c0 1.104-.896 2-2 2z" fill="#a4c9ff" data-original="#A4C9FF" class=""/><path d="m108.804 170.801h-98.804c-2.206 0-4-1.794-4-4v-13.134c0-2.206 1.794-4 4-4h98.804c2.206 0 4 1.794 4 4v13.134c0 2.205-1.794 4-4 4zm-98.804-17.134v13.134h98.807l-.003-13.134z" fill="#3762cc" data-original="#3762CC"/><path d="m159.162 133.359c-.005-.023-.01-.046-.016-.068-.027-.099-.061-.195-.107-.285-.005-.01-.012-.02-.018-.03-.045-.082-.098-.159-.157-.232-.014-.017-.026-.033-.041-.05-.068-.076-.143-.144-.226-.204-.006-.004-.01-.01-.016-.014-.011-.008-.024-.011-.035-.019-.075-.05-.155-.093-.24-.129-.017-.007-.033-.016-.05-.023-.008-.003-.016-.008-.024-.011l-13.17-4.707c-.317-.114-.665-.114-.982 0l-13.17 4.707c-.008.003-.016.008-.024.011-.017.007-.034.015-.051.023-.085.036-.165.079-.24.129-.011.007-.024.011-.034.019-.006.004-.01.01-.015.014-.083.06-.159.129-.227.205-.014.016-.027.033-.04.049-.06.073-.113.15-.158.232-.005.01-.012.019-.017.029-.046.09-.08.186-.107.285-.006.023-.011.045-.016.068-.022.101-.038.205-.038.311v16.024c0 .617.388 1.167.968 1.374l13.17 4.707c.008.003.016.004.025.006.052.018.105.03.159.042.024.005.048.013.072.017.077.013.154.02.232.02h.003s0 0 0 0h.003c.078 0 .155-.007.232-.02.025-.004.049-.012.073-.017.053-.011.106-.024.158-.041.008-.003.017-.004.025-.007l13.17-4.707c.581-.208.968-.758.968-1.374v-16.023c-.002-.107-.017-.21-.039-.311zm-14.592-2.846 8.833 3.157-3.071 1.098-5.762 2.06-8.834-3.157zm-11.711 5.229 3.301 1.18 6.95 2.484v12.924l-10.251-3.664zm23.421 12.924-10.251 3.664v-12.925l8.366-2.99 1.885-.674z" fill="#f9a7a7" data-original="#F9A7A7"/><path d="m228.592 82.935c-.005-.023-.01-.046-.016-.068-.027-.099-.061-.195-.107-.285-.005-.01-.012-.02-.018-.03-.045-.082-.098-.159-.157-.231-.014-.017-.026-.033-.041-.05-.068-.076-.143-.144-.226-.204-.006-.004-.01-.01-.016-.014-.011-.008-.024-.011-.035-.019-.075-.05-.155-.093-.24-.129-.017-.007-.033-.016-.05-.023-.008-.003-.016-.008-.024-.011l-13.17-4.707c-.317-.114-.665-.114-.982 0l-13.17 4.707c-.008.003-.016.008-.024.011-.017.007-.034.015-.051.023-.085.036-.165.079-.24.129-.011.007-.024.011-.034.019-.006.004-.01.01-.015.014-.083.06-.159.129-.227.205-.014.016-.027.033-.04.049-.06.073-.113.15-.158.232-.005.01-.012.019-.017.029-.046.09-.08.186-.107.285-.006.023-.011.045-.016.068-.022.101-.038.205-.038.311v16.024c0 .617.388 1.167.968 1.374l13.17 4.707c.008.003.016.004.025.006.052.018.105.03.159.042.024.005.048.013.072.017.077.013.154.02.232.02h.003s0 0 0 0h.003c.078 0 .155-.007.232-.02.025-.004.049-.012.073-.017.053-.011.106-.024.158-.041.008-.003.017-.004.025-.007l13.17-4.707c.581-.208.968-.758.968-1.374v-16.024c-.001-.107-.017-.21-.039-.311zm-14.592-2.846 8.833 3.157-3.071 1.098-5.762 2.059-8.834-3.157zm-11.711 5.228 3.301 1.18 6.95 2.484v12.924l-10.251-3.664zm23.422 12.925-10.251 3.664v-12.925l8.366-2.99 1.885-.674z" fill="#f9a7a7" data-original="#F9A7A7"/><g fill="#a4c9ff"><path d="m226 143.565h-24c-1.104 0-2-.896-2-2s.896-2 2-2h24c1.104 0 2 .896 2 2s-.896 2-2 2z" data-original="#A4C9FF" class=""/><path d="m226 153.565h-24c-1.104 0-2-.896-2-2s.896-2 2-2h24c1.104 0 2 .896 2 2s-.896 2-2 2z" data-original="#A4C9FF" class=""/><path d="m226 163.565h-24c-1.104 0-2-.896-2-2s.896-2 2-2h24c1.104 0 2 .896 2 2s-.896 2-2 2z" data-original="#A4C9FF" class=""/><path d="m226 173.565h-24c-1.104 0-2-.896-2-2s.896-2 2-2h24c1.104 0 2 .896 2 2s-.896 2-2 2z" data-original="#A4C9FF" class=""/><path d="m226 183.565h-24c-1.104 0-2-.896-2-2s.896-2 2-2h24c1.104 0 2 .896 2 2s-.896 2-2 2z" data-original="#A4C9FF" class=""/></g><path d="m88.362 229.667h-58c-3.309 0-6-2.691-6-6v-36.667c0-3.309 2.691-6 6-6h58c3.309 0 6 2.691 6 6v36.667c0 3.308-2.691 6-6 6zm-58-44.667c-1.103 0-2 .897-2 2v36.667c0 1.103.897 2 2 2h58c1.103 0 2-.897 2-2v-36.667c0-1.103-.897-2-2-2z" fill="#3762cc" data-original="#3762CC"/><path d="m222.25 238h-18c-1.104 0-2-.896-2-2v-18.5c0-1.104.896-2 2-2h18c1.104 0 2 .896 2 2v18.5c0 1.104-.896 2-2 2zm-16-4h14v-14.5h-14z" fill="#3762cc" data-original="#3762CC"/></g> </svg>
