<?xml version="1.0"?>
<svg xmlns="http://www.w3.org/2000/svg" id="Layer_5" enable-background="new 0 0 64 64" height="512px" viewBox="0 0 64 64" width="512px"><g><g><g><path d="m41 21c-.114 0-.225.005-.332.013-1.768-2.457-5.088-4.013-8.668-4.013-4.611 0-8.572 2.522-9.684 6.012-2.883-.21-5.316 2.126-5.316 4.988 0 2.757 2.243 5 5 5h8v-5c0-1.105.895-2 2-2s2 .895 2 2v5h7c3.309 0 6-2.691 6-6s-2.691-6-6-6z" fill="#f0bc5e" data-original="#F0BC5E"/></g><g><g><path d="m10 19c-1.654 0-3-1.346-3-3s1.346-3 3-3 3 1.346 3 3-1.346 3-3 3z" fill="#f0bc5e" data-original="#F0BC5E"/></g></g><g><path d="m5 47h10v5h-10z" fill="#f0bc5e" data-original="#F0BC5E"/></g><g><path d="m44 39c-.395 0-.77.081-1.116.22-.345-1.275-1.501-2.22-2.884-2.22-.771 0-1.468.301-2 .78-.532-.48-1.229-.78-2-.78-.352 0-.686.072-1 .184v-9.184c0-1.654-1.346-3-3-3s-3 1.346-3 3v13.258c-1.341-1.411-3.245-2.299-5.382-2.3-1.443 0-2.618 1.175-2.618 2.618 0 .404.096.81.276 1.171l1.165 2.331c.366.731.559 1.548.559 2.364v4.108c0 1.075.253 2.151.73 3.112l2.27 4.572v3.721l18 .048v-3.67l1.6-2.133c.903-1.203 1.4-2.694 1.4-4.2v-11c0-1.654-1.346-3-3-3zm1 14c0 1.075-.355 2.141-1 3l-2 2.667v2.33l-14-.036v-2.195l-2.479-4.992c-.34-.687-.521-1.456-.521-2.223v-4.108c0-1.125-.267-2.252-.77-3.259l-1.165-2.331c-.043-.085-.065-.181-.065-.277 0-.341.277-.618.714-.618 2.915.001 5.286 2.373 5.286 5.287v1.713 2h2v-2-1.713-18.245c0-.552.448-1 1-1s1 .448 1 1v12 4h2v-4c0-.552.448-1 1-1s1 .448 1 1v4h2v-4c0-.552.448-1 1-1s1 .448 1 1v2 2h2v-2c0-.552.448-1 1-1s1 .448 1 1z" data-original="#000000" class="active-path" style="fill:#0F0FBB" data-old_color="#000000"/><path d="m10 7c-4.963 0-9 4.037-9 9 0 3.525 2.042 6.574 5 8.05v2.95c0 2.206 1.794 4 4 4s4-1.794 4-4v-2.95c2.958-1.476 5-4.526 5-8.05 0-4.963-4.037-9-9-9zm2 20c0 1.103-.897 2-2 2s-2-.897-2-2v-2.232c.644.147 1.312.232 2 .232s1.356-.085 2-.232zm-1-4.08v-4.104c-.314.112-.648.184-1 .184s-.686-.072-1-.184v4.104c-3.386-.488-6-3.401-6-6.92 0-3.859 3.141-7 7-7s7 3.141 7 7c0 3.519-2.614 6.432-6 6.92z" data-original="#000000" class="active-path" style="fill:#0F0FBB" data-old_color="#000000"/><path d="m9 1h2v4h-2z" data-original="#000000" class="active-path" style="fill:#0F0FBB" data-old_color="#000000"/><path d="m4 1.764h2v4.472h-2z" transform="matrix(.894 -.447 .447 .894 -1.261 2.658)" data-original="#000000" class="active-path" style="fill:#0F0FBB" data-old_color="#000000"/><path d="m12.764 3h4.472v2h-4.472z" transform="matrix(.447 -.894 .894 .447 4.714 15.628)" data-original="#000000" class="active-path" style="fill:#0F0FBB" data-old_color="#000000"/><path d="m59.221 43.792c1.079-.918 1.779-2.268 1.779-3.792 0-2.757-2.243-5-5-5s-5 2.243-5 5c0 1.524.7 2.874 1.779 3.792-2.242 1.168-3.779 3.51-3.779 6.208v5h14v-5c0-2.698-1.537-5.04-3.779-6.208zm-6.221-3.792c0-1.654 1.346-3 3-3s3 1.346 3 3-1.346 3-3 3-3-1.346-3-3zm8 13h-10v-3c0-2.757 2.243-5 5-5s5 2.243 5 5z" data-original="#000000" class="active-path" style="fill:#0F0FBB" data-old_color="#000000"/><path d="m57 1v2h-4v2h-4v12h14v-16zm-6 6h2v8h-2zm4 8v-10h2v10zm6 0h-2v-12h2z" data-original="#000000" class="active-path" style="fill:#0F0FBB" data-old_color="#000000"/><path d="m55 33h2v-4h-8v2h6z" data-original="#000000" class="active-path" style="fill:#0F0FBB" data-old_color="#000000"/><path d="m57 19h-2v6h-6v2h8z" data-original="#000000" class="active-path" style="fill:#0F0FBB" data-old_color="#000000"/><path d="m5 50h6v2h-6z" data-original="#000000" class="active-path" style="fill:#0F0FBB" data-old_color="#000000"/><path d="m13 50h2v2h-2z" data-original="#000000" class="active-path" style="fill:#0F0FBB" data-old_color="#000000"/><path d="m5 46h10v2h-10z" data-original="#000000" class="active-path" style="fill:#0F0FBB" data-old_color="#000000"/><path d="m16 42h-12c-1.654 0-3 1.346-3 3v8c0 1.654 1.346 3 3 3h3.586l3.293 3.293c.449.449 1.071.707 1.707.707 1.331 0 2.414-1.083 2.414-2.414v-1.586h1c1.654 0 3-1.346 3-3v-8c0-1.654-1.346-3-3-3zm1 11c0 .552-.448 1-1 1h-3v3.586c0 .338-.468.531-.707.293l-3.879-3.879h-4.414c-.552 0-1-.448-1-1v-8c0-.552.448-1 1-1h12c.552 0 1 .448 1 1z" data-original="#000000" class="active-path" style="fill:#0F0FBB" data-old_color="#000000"/><path d="m31 15h2v-4h-13v2h11z" data-original="#000000" class="active-path" style="fill:#0F0FBB" data-old_color="#000000"/><path d="m17 36h-8v4h2v-2h8v-4h-2z" data-original="#000000" class="active-path" style="fill:#0F0FBB" data-old_color="#000000"/></g></g></g> </svg>
