<?xml version="1.0"?>
<svg xmlns="http://www.w3.org/2000/svg" id="Layer_1" enable-background="new 0 0 512.006 512.006" height="512px" viewBox="0 0 512.006 512.006" width="512px" class=""><g><path clip-rule="evenodd" d="m414.664 28.298c-1.326-2.297-3.51-3.973-6.072-4.659l-86.933-23.293c-5.337-1.431-10.817 1.737-12.247 7.071l-16.134 60.213-18.865-31.443c-1.808-3.013-5.063-4.855-8.575-4.855s-6.768 1.843-8.575 4.855l-30 50.002c-.932 1.554-1.425 3.332-1.425 5.145v100.671.001h-2.328l-39.314-146.719c-1.331-4.965-6.171-8.047-11.137-7.298l-5.374-20.056c-3.452-12.884-16.741-20.559-29.627-17.105l-23.989 6.428c-12.884 3.453-20.557 16.744-17.104 29.628l5.375 20.057c-2.093.824-3.862 2.331-4.998 4.299-1.326 2.297-1.686 5.026-.999 7.588l33.006 123.18h-3.346c-5.523 0-10 4.478-10 10v40.001c-5.523 0-10 4.478-10 10s4.477 10 10 10v179.998c-5.523 0-10 4.478-10 10s4.477 10 10 10v20.002c0 16.542 13.458 29.999 30 29.999h220.001c16.542 0 30-13.457 30-29.999v-20.002c5.522 0 10-4.478 10-10s-4.478-10-10-10v-180c5.522 0 10-4.478 10-10s-4.478-10-10-10v-40.001c0-5.522-4.478-10-10-10h-12.173l41.832-156.12c.687-2.562.327-5.291-.999-7.588zm-88.521-6.046 67.614 18.117-5.177 19.321h-.001l-24.147-6.471c-5.332-1.433-10.817 1.736-12.247 7.071-1.43 5.334 1.736 10.817 7.071 12.247l24.147 6.471-5.176 19.319h-.001l-14.488-3.882c-5.337-1.43-10.817 1.737-12.247 7.071-1.43 5.335 1.736 10.818 7.071 12.247l14.488 3.882-5.176 19.319h-.001l-14.488-3.882c-5.338-1.429-10.817 1.737-12.247 7.071-1.43 5.335 1.736 10.818 7.071 12.247l14.488 3.882-5.177 19.319-24.147-6.471c-5.332-1.428-10.817 1.737-12.247 7.071s1.736 10.817 7.071 12.247l13.276 3.558h-35.637v-.001-93.976zm-60.305 38.518 20 33.334v27.231h-40v-27.231zm-20.001 131.235v-50.67h40v50.67.001zm-127.587-118.695 49.216-13.188 5.842 21.804-49.217 13.187zm.997-46.737 23.988-6.428c2.194-.587 4.544.769 5.132 2.963l5.357 19.991-32.083 8.596-5.357-19.99c-.589-2.193.769-4.544 2.963-5.132zm10.021 87.859 49.217-13.188 24.32 90.762h-52.751zm246.736 367.575c0 5.514-4.486 9.999-10 9.999h-220.001c-5.514 0-10-4.485-10-9.999v-20.002h240.001zm0-40.002h-240.001v-179.998h240.001zm0-199.998h-240.001v-30.001h240.001z" fill-rule="evenodd" data-original="#000000" class="active-path" data-old_color="#000000" fill="#161FCD"/></g> </svg>
