<?xml version="1.0"?>
<svg xmlns="http://www.w3.org/2000/svg" height="512px" viewBox="-42 0 512 512" width="512px"><g><path d="m428.296875 512h-383.292969c-24.816406 0-45.003906-20.1875-45.003906-45.003906v-410.511719c0-31.144531 25.339844-56.484375 56.484375-56.484375h371.8125zm-383.292969-60.003906c-8.273437 0-15.003906 6.730468-15.003906 15 0 8.273437 6.730469 15.003906 15.003906 15.003906h353.296875v-30.003906zm11.480469-421.996094c-14.605469 0-26.484375 11.882812-26.484375 26.484375v368.082031c4.691406-1.664062 9.746094-2.570312 15.003906-2.570312h353.296875v-391.996094zm0 0" data-original="#000000" class="active-path" data-old_color="#000000" fill="#0F0FBB"/><path d="m56.851562 108.554688h314.296876v30h-314.296876zm0 0" data-original="#000000" class="active-path" data-old_color="#000000" fill="#0F0FBB"/><path d="m170.234375 244.929688h-112.085937v-84.371094h112.085937zm-82.085937-30h52.085937v-24.371094h-52.085937zm0 0" data-original="#000000" class="active-path" data-old_color="#000000" fill="#0F0FBB"/><path d="m57.148438 365.183594h114.667968v30h-114.667968zm0 0" data-original="#000000" class="active-path" data-old_color="#000000" fill="#0F0FBB"/><path d="m57.148438 315.179688h114.667968v30h-114.667968zm0 0" data-original="#000000" class="active-path" data-old_color="#000000" fill="#0F0FBB"/><path d="m257.773438 365.183594h113.667968v30h-113.667968zm0 0" data-original="#000000" class="active-path" data-old_color="#000000" fill="#0F0FBB"/><path d="m257.773438 315.179688h113.667968v30h-113.667968zm0 0" data-original="#000000" class="active-path" data-old_color="#000000" fill="#0F0FBB"/><path d="m200.148438 163.558594h171v30h-171zm0 0" data-original="#000000" class="active-path" data-old_color="#000000" fill="#0F0FBB"/><path d="m200.148438 213.5625h171v30h-171zm0 0" data-original="#000000" class="active-path" data-old_color="#000000" fill="#0F0FBB"/><path d="m199.148438 315.546875h30v80.996094h-30zm0 0" data-original="#000000" class="active-path" data-old_color="#000000" fill="#0F0FBB"/><path d="m57.148438 263.5625h314v30h-314zm0 0" data-original="#000000" class="active-path" data-old_color="#000000" fill="#0F0FBB"/><path d="m91.113281 88.335938-.109375-17.445313-8.3125 14h-5.6875l-8.3125-13.398437v16.84375h-11.757812v-38.28125h10.609375l12.46875 20.398437 12.140625-20.398437h10.609375l.109375 38.28125zm0 0" data-original="#000000" class="active-path" data-old_color="#000000" fill="#0F0FBB"/><path d="m135.195312 81.664062h-14.546874l-2.570313 6.671876h-13.125l16.734375-38.28125h12.6875l16.734375 38.28125h-13.34375zm-3.554687-9.296874-3.71875-9.625-3.722656 9.625zm0 0" data-original="#000000" class="active-path" data-old_color="#000000" fill="#0F0FBB"/><path d="m177.960938 68.15625h11.210937v16.1875c-4.648437 3.171875-11.046875 4.867188-16.679687 4.867188-12.359376 0-21.382813-8.257813-21.382813-20.015626 0-11.757812 9.023437-20.015624 21.65625-20.015624 7.546875 0 13.617187 2.625 17.5 7.382812l-8.257813 7.273438c-2.40625-2.789063-5.195312-4.210938-8.585937-4.210938-5.6875 0-9.296875 3.664062-9.296875 9.570312 0 5.742188 3.609375 9.570313 9.132812 9.570313 1.585938 0 3.117188-.273437 4.703126-.929687zm0 0" data-original="#000000" class="active-path" data-old_color="#000000" fill="#0F0FBB"/><path d="m220.785156 81.664062h-14.546875l-2.570312 6.671876h-13.125l16.734375-38.28125h12.6875l16.734375 38.28125h-13.34375zm-3.554687-9.296874-3.71875-9.625-3.71875 9.625zm0 0" data-original="#000000" class="active-path" data-old_color="#000000" fill="#0F0FBB"/><path d="m272.574219 78.328125v10.007813h-35.164063v-7.929688l17.5-20.34375h-16.949218v-10.007812h33.738281v7.929687l-17.5 20.34375zm0 0" data-original="#000000" class="active-path" data-old_color="#000000" fill="#0F0FBB"/><path d="m276.351562 50.054688h12.90625v38.28125h-12.90625zm0 0" data-original="#000000" class="active-path" data-old_color="#000000" fill="#0F0FBB"/><path d="m333.226562 50.054688v38.28125h-10.609374l-14.546876-17.390626v17.390626h-12.578124v-38.28125h10.609374l14.546876 17.390624v-17.390624zm0 0" data-original="#000000" class="active-path" data-old_color="#000000" fill="#0F0FBB"/><path d="m371.289062 78.601562v9.734376h-31.824218v-38.28125h31.113281v9.734374h-18.429687v4.484376h16.191406v9.296874h-16.191406v5.03125zm0 0" data-original="#000000" class="active-path" data-old_color="#000000" fill="#0F0FBB"/></g> </svg>
