<?xml version="1.0"?>
<svg xmlns="http://www.w3.org/2000/svg" xmlns:xlink="http://www.w3.org/1999/xlink" version="1.1" id="Capa_1" x="0px" y="0px" viewBox="0 0 511.803 511.803" style="enable-background:new 0 0 511.803 511.803;" xml:space="preserve" width="512px" height="512px"><g><g>
	<g>
		<path d="M327.543,325.663c-0.132-2.186-2.046-3.873-4.233-3.732c-2.21,0.125-3.882,2.03-3.749,4.232    c2.764,44.661-13.778,88.416-45.387,120.033c-29.454,29.462-68.624,45.677-110.286,45.677c-41.662,0-80.825-16.215-110.286-45.677    C24.149,416.735,7.926,377.573,7.926,335.911c0-41.662,16.223-80.821,45.677-110.282c31.633-31.641,75.443-48.192,120.08-45.372    c2.14,0.219,4.108-1.539,4.241-3.741c0.141-2.203-1.531-4.1-3.741-4.241c-47.005-3.008-92.985,14.433-126.235,47.699    c-63.93,63.934-63.93,167.955,0,231.877c31.968,31.977,73.95,47.957,115.94,47.957c41.99,0,83.98-15.98,115.94-47.957    C313.055,418.609,330.448,372.621,327.543,325.663z" data-original="#000000" class="active-path" data-old_color="#000000" fill="#0F0FBB"/>
	</g>
</g><g>
	<g>
		<path d="M323.787,321.931c-37.905-2.375-73.592-18.481-100.491-45.38c-26.892-26.896-43.005-62.599-45.372-100.519    c-0.14-2.202-2.023-3.929-4.241-3.741c-2.202,0.14-3.874,2.038-3.741,4.241c2.491,39.865,19.432,77.403,47.699,105.673    c28.282,28.274,65.796,45.208,105.646,47.708c0.086,0,0.172,0,0.258,0c2.092,0,3.85-1.625,3.983-3.75    C327.669,323.961,325.989,322.072,323.787,321.931z" data-original="#000000" class="active-path" data-old_color="#000000" fill="#0F0FBB"/>
	</g>
</g><g>
	<g>
		<path d="M326.379,323.07L176.76,173.454c-1.562-1.562-4.093-1.562-5.655,0c-1.562,1.562-1.562,4.093,0,5.655l149.62,149.616    c0.781,0.781,1.804,1.172,2.827,1.172c1.024,0,2.046-0.391,2.827-1.172C327.941,327.163,327.941,324.632,326.379,323.07z" data-original="#000000" class="active-path" data-old_color="#000000" fill="#0F0FBB"/>
	</g>
</g><g>
	<g>
		<path d="M254.647,320.851c-0.36-2.187-2.374-3.702-4.592-3.312c-2.18,0.36-3.664,2.406-3.305,4.594    c0.742,4.56,1.117,9.184,1.117,13.777c0,46.3-37.67,83.979-83.979,83.979c-46.301,0-83.979-37.678-83.979-83.979    c0-46.316,37.679-83.983,83.972-83.983c4.655,0.008,9.31,0.391,13.84,1.141c2.179,0.39,4.233-1.118,4.592-3.289    c0.367-2.179-1.109-4.241-3.288-4.6c-4.96-0.82-10.044-1.242-15.137-1.25c-50.714,0-91.978,41.258-91.978,91.981    c0,50.722,41.264,91.978,91.978,91.978c50.722,0,91.978-41.271,91.978-91.978C255.866,330.895,255.459,325.818,254.647,320.851z" data-original="#000000" class="active-path" data-old_color="#000000" fill="#0F0FBB"/>
	</g>
</g><g>
	<g>
		<path d="M154.186,348.627c-1.811-1.282-4.303-0.829-5.568,0.983l-27.993,39.99c-1.266,1.813-0.828,4.297,0.984,5.562    c0.695,0.5,1.492,0.734,2.289,0.734c1.258,0,2.499-0.594,3.279-1.703l27.993-39.99    C156.436,352.392,155.998,349.892,154.186,348.627z" data-original="#000000" class="active-path" data-old_color="#000000" fill="#0F0FBB"/>
	</g>
</g><g>
	<g>
		<path d="M160.764,357.607l-5.593-7.998c-1.265-1.811-3.757-2.233-5.569-0.983c-1.812,1.265-2.25,3.765-0.984,5.561l5.592,7.998    c0.774,1.125,2.016,1.719,3.281,1.719c0.789,0,1.586-0.234,2.289-0.72C161.584,361.919,162.029,359.419,160.764,357.607z" data-original="#000000" class="active-path" data-old_color="#000000" fill="#0F0FBB"/>
	</g>
</g><g>
	<g>
		<path d="M214.172,308.652c-1.812-1.281-4.304-0.828-5.569,0.968l-55.986,79.98c-1.266,1.812-0.828,4.312,0.984,5.577    c0.695,0.485,1.492,0.719,2.289,0.719c1.258,0,2.499-0.594,3.28-1.703l55.986-79.98    C216.422,312.401,215.984,309.917,214.172,308.652z" data-original="#000000" class="active-path" data-old_color="#000000" fill="#0F0FBB"/>
	</g>
</g><g>
	<g>
		<path d="M243.151,349.61l-27.993-39.99c-1.265-1.796-3.765-2.249-5.569-0.968c-1.812,1.265-2.25,3.749-0.984,5.561l27.993,39.99    c0.773,1.109,2.014,1.703,3.28,1.703c0.789,0,1.593-0.234,2.289-0.719C243.979,353.922,244.417,351.422,243.151,349.61z" data-original="#000000" class="active-path" data-old_color="#000000" fill="#0F0FBB"/>
	</g>
</g><g>
	<g>
		<path d="M131.896,283.924c-11.028,0-19.995,8.982-19.995,19.995c0,11.028,8.975,19.995,20.011,19.995    c11.02,0,19.979-8.967,19.979-19.995C151.891,292.891,142.923,283.924,131.896,283.924z M131.912,315.916h-0.016    c-6.616,0-11.997-5.39-11.997-11.997s5.389-11.997,11.997-11.997c6.615,0,11.997,5.374,11.997,11.997    C143.893,310.526,138.519,315.916,131.912,315.916z" data-original="#000000" class="active-path" data-old_color="#000000" fill="#0F0FBB"/>
	</g>
</g><g>
	<g>
		<path d="M507.804,59.982c-2.21,0-3.999,1.789-3.999,3.999v111.973c0,6.615-5.382,11.997-11.997,11.997H267.863    c-6.616,0-11.997-5.382-11.997-11.997V31.989c0-6.616,5.381-11.997,11.997-11.997h191.953c2.21,0,3.999-1.789,3.999-3.999    c0-2.21-1.789-3.999-3.999-3.999H267.863c-11.02,0-19.995,8.967-19.995,19.995v143.965c0,11.028,8.974,19.995,19.995,19.995    h223.945c11.029,0,19.995-8.967,19.995-19.995V63.981C511.803,61.771,510.014,59.982,507.804,59.982z" data-original="#000000" class="active-path" data-old_color="#000000" fill="#0F0FBB"/>
	</g>
</g><g>
	<g>
		<path d="M507.803,59.982c-24.252,0-43.989-19.737-43.989-43.989c0-2.21-1.789-3.999-3.999-3.999c-2.21,0-3.999,1.789-3.999,3.999    c0,28.665,23.322,51.987,51.987,51.987c2.21,0,3.999-1.789,3.999-3.999C511.803,61.771,510.014,59.982,507.803,59.982z" data-original="#000000" class="active-path" data-old_color="#000000" fill="#0F0FBB"/>
	</g>
</g><g>
	<g>
		<path d="M510.631,61.154l-47.988-47.988c-1.561-1.562-4.092-1.562-5.654,0c-1.562,1.561-1.562,4.092,0,5.654l47.988,47.988    c0.781,0.781,1.804,1.172,2.827,1.172c1.024,0,2.046-0.391,2.827-1.172C512.193,65.246,512.193,62.716,510.631,61.154z" data-original="#000000" class="active-path" data-old_color="#000000" fill="#0F0FBB"/>
	</g>
</g><g>
	<g>
		<path d="M303.854,51.984c-8.818,0-15.996,7.178-15.996,15.996s7.178,15.996,15.996,15.996c8.826,0,15.996-7.178,15.996-15.996    S312.68,51.984,303.854,51.984z M303.854,75.978c-4.405,0-7.998-3.585-7.998-7.998c0-4.413,3.593-7.998,7.998-7.998    c4.413,0,7.998,3.585,7.998,7.998C311.852,72.393,308.267,75.978,303.854,75.978z" data-original="#000000" class="active-path" data-old_color="#000000" fill="#0F0FBB"/>
	</g>
</g><g>
	<g>
		<path d="M334.346,108.845c-1.718-1.375-4.24-1.085-5.623,0.625l-31.992,39.99c-1.375,1.727-1.094,4.242,0.625,5.624    c0.742,0.586,1.624,0.875,2.499,0.875c1.172,0,2.335-0.516,3.124-1.501l31.992-39.99    C336.354,112.742,336.073,110.227,334.346,108.845z" data-original="#000000" class="active-path" data-old_color="#000000" fill="#0F0FBB"/>
	</g>
</g><g>
	<g>
		<path d="M347.749,125.443L334.97,109.47c-1.383-1.711-3.897-2-5.623-0.625c-1.719,1.382-2,3.897-0.625,5.623l12.777,15.973    c0.797,0.984,1.953,1.5,3.133,1.5c0.875,0,1.757-0.289,2.491-0.874C348.85,129.684,349.132,127.169,347.749,125.443z" data-original="#000000" class="active-path" data-old_color="#000000" fill="#0F0FBB"/>
	</g>
</g><g>
	<g>
		<path d="M406.328,68.855c-1.718-1.375-4.232-1.085-5.623,0.625l-63.984,79.98c-1.375,1.727-1.094,4.242,0.625,5.624    c0.742,0.586,1.624,0.875,2.499,0.875c1.172,0,2.335-0.516,3.124-1.501l63.984-79.98    C408.336,72.752,408.055,70.237,406.328,68.855z" data-original="#000000" class="active-path" data-old_color="#000000" fill="#0F0FBB"/>
	</g>
</g><g>
	<g>
		<path d="M470.938,149.461l-63.984-79.98c-1.383-1.719-3.89-2-5.623-0.625c-1.719,1.382-2,3.897-0.625,5.623l63.984,79.98    c0.797,0.984,1.952,1.5,3.132,1.5c0.875,0,1.757-0.289,2.491-0.874C472.04,153.702,472.321,151.187,470.938,149.461z" data-original="#000000" class="active-path" data-old_color="#000000" fill="#0F0FBB"/>
	</g>
</g></g> </svg>
