<?xml version="1.0"?>
<svg xmlns="http://www.w3.org/2000/svg" id="icons" enable-background="new 0 0 64 64" height="512px" viewBox="0 0 64 64" width="512px"><g><path d="m63 53.995h-62c0-.01.01-1.49 3-3.08 3.53-1.88 11.229-3.92 27.99-3.92 16.79 0 24.489 2.05 28.01 3.93 3 1.599 3 3.07 3 3.07z" fill="#d7e9ff" data-original="#D7E9FF"/><path d="m36 12.005v1.28.01c-1.311-.19-2.65-.29-4.01-.29s-2.69.1-3.99.28v-1.28c0-1.11.9-2 2-2h4c1.11 0 2 .89 2 2z" fill="#5c9eff" data-original="#5C9EFF"/><path d="m24 23.995c1.11 0 2 .899 2 2 0 1.109-.89 2-2 2-1.1 0-2-.891-2-2 0-1.1.9-2 2-2z" fill="#fff" data-original="#FFF"/><path d="m60 40.975v9.95c-3.521-1.88-11.22-3.93-28.01-3.93-16.761 0-24.46 2.04-27.99 3.92v-9.94h.02c0-14.09 10.42-25.75 23.98-27.689 1.3-.181 2.63-.28 3.99-.28 1.359 0 2.699.1 4.01.29 13.55 1.94 23.96 13.59 23.96 27.68h.04zm-17-.97-7.99-12.01h-.01l-4.5 6.76-2.5-3.76-6 9.01h5zm-17-14.01c0-1.101-.89-2-2-2-1.1 0-2 .899-2 2 0 1.109.9 2 2 2 1.11 0 2-.891 2-2z" fill="#94c1ff" data-original="#94C1FF"/><path d="m59.96 40.975c0-14.09-10.41-25.739-23.96-27.68-1.311-.19-2.65-.29-4.01-.29-.629 0-1.25.026-1.866.067.729.048 1.454.119 2.169.223 13.55 1.94 23.96 13.59 23.96 27.68h.04v8.483c1.575.475 2.788.977 3.707 1.467v-9.95z" fill="#5c9eff" data-original="#5C9EFF"/><path d="m28 30.995 2.5 3.76-3.5 5.25h-5z" fill="#d7e9ff" data-original="#D7E9FF"/><path d="m35.01 27.995 7.99 12.01h-16l3.5-5.25 4.5-6.76z" fill="#d7e9ff" data-original="#D7E9FF"/><g fill="#116fff"><path d="m1 54.998c-.55 0-.997-.444-1-.995-.001-.183.054-1.152 1.218-2.321 2.582-2.594 10.016-5.686 30.767-5.686 30.471 0 32.015 6.666 32.015 8.002 0 .553-.447 1-1 1s-1-.447-1-1c-.007 0-1.232-6.002-30.016-6.002-21.91 0-27.824 3.564-29.35 5.097-.497.5-.634.898-.634.9.003.553-.443 1.002-.995 1.005-.002 0-.004 0-.005 0z" data-original="#116FFF" class="active-path" style="fill:#0F0FBB" data-old_color="#116FFF"/><path d="m63 54.998h-62c-.553 0-1-.447-1-1s.447-1 1-1h62c.553 0 1 .447 1 1s-.447 1-1 1z" data-original="#116FFF" class="active-path" style="fill:#0F0FBB" data-old_color="#116FFF"/><path d="m59.956 41.973c-.553 0-1-.447-1-1 0-14.872-12.1-26.971-26.972-26.971s-26.971 12.099-26.971 26.971c0 .553-.447 1-1 1s-1-.447-1-1c0-15.975 12.997-28.971 28.972-28.971s28.972 12.996 28.972 28.971c-.001.552-.448 1-1.001 1z" data-original="#116FFF" class="active-path" style="fill:#0F0FBB" data-old_color="#116FFF"/><path d="m3.999 51.92c-.553 0-1-.447-1-1v-9.947c0-.553.447-1 1-1s1 .447 1 1v9.947c0 .553-.447 1-1 1z" data-original="#116FFF" class="active-path" style="fill:#0F0FBB" data-old_color="#116FFF"/><path d="m60.001 51.928c-.553 0-1-.447-1-1v-9.955c0-.553.447-1 1-1s1 .447 1 1v9.955c0 .552-.447 1-1 1z" data-original="#116FFF" class="active-path" style="fill:#0F0FBB" data-old_color="#116FFF"/><path d="m28 13.002c-.553 0-1-.447-1-1 0-1.654 1.346-3 3-3 .553 0 1 .447 1 1s-.447 1-1 1c-.552 0-1 .448-1 1 0 .553-.447 1-1 1z" data-original="#116FFF" class="active-path" style="fill:#0F0FBB" data-old_color="#116FFF"/><path d="m36 13.002c-.553 0-1-.447-1-1 0-.552-.448-1-1-1-.553 0-1-.447-1-1s.447-1 1-1c1.654 0 3 1.346 3 3 0 .553-.447 1-1 1z" data-original="#116FFF" class="active-path" style="fill:#0F0FBB" data-old_color="#116FFF"/><path d="m34 11.002h-4c-.553 0-1-.447-1-1s.447-1 1-1h4c.553 0 1 .447 1 1s-.447 1-1 1z" data-original="#116FFF" class="active-path" style="fill:#0F0FBB" data-old_color="#116FFF"/><path d="m36 14.287c-.553 0-1-.447-1-1v-1.285c0-.553.447-1 1-1s1 .447 1 1v1.285c0 .553-.447 1-1 1z" data-original="#116FFF" class="active-path" style="fill:#0F0FBB" data-old_color="#116FFF"/><path d="m28 14.283c-.553 0-1-.447-1-1v-1.281c0-.553.447-1 1-1s1 .447 1 1v1.281c0 .553-.447 1-1 1z" data-original="#116FFF" class="active-path" style="fill:#0F0FBB" data-old_color="#116FFF"/><path d="m27.001 41.002c-.19 0-.383-.055-.554-.168-.459-.306-.584-.927-.277-1.387l7.996-12.002c.305-.46.925-.584 1.387-.277.459.306.584.927.277 1.387l-7.996 12.002c-.192.289-.51.445-.833.445z" data-original="#116FFF" class="active-path" style="fill:#0F0FBB" data-old_color="#116FFF"/><path d="m43.002 41.002c-.323 0-.641-.156-.833-.445l-7.996-12.002c-.307-.46-.182-1.081.277-1.387.46-.307 1.081-.183 1.387.277l7.996 12.002c.307.46.182 1.081-.277 1.387-.171.113-.364.168-.554.168z" data-original="#116FFF" class="active-path" style="fill:#0F0FBB" data-old_color="#116FFF"/><path d="m21.994 41.002c-.19 0-.383-.055-.554-.168-.459-.306-.584-.927-.277-1.387l5.998-9.002c.305-.46.926-.583 1.387-.277.459.306.584.927.277 1.387l-5.998 9.002c-.192.289-.51.445-.833.445z" data-original="#116FFF" class="active-path" style="fill:#0F0FBB" data-old_color="#116FFF"/><path d="m30.498 35.753c-.323 0-.641-.156-.833-.445l-2.499-3.753c-.307-.46-.182-1.081.277-1.387.46-.306 1.081-.183 1.387.277l2.499 3.753c.307.46.182 1.081-.277 1.387-.171.113-.364.168-.554.168z" data-original="#116FFF" class="active-path" style="fill:#0F0FBB" data-old_color="#116FFF"/><path d="m43.001 41.002h-21.004c-.553 0-1-.447-1-1s.447-1 1-1h21.004c.553 0 1 .447 1 1s-.447 1-1 1z" data-original="#116FFF" class="active-path" style="fill:#0F0FBB" data-old_color="#116FFF"/><path d="m23.999 29c-1.654 0-3-1.346-3-3s1.346-3 3-3 3 1.346 3 3-1.346 3-3 3zm0-4c-.552 0-1 .448-1 1s.448 1 1 1 1-.448 1-1-.448-1-1-1z" data-original="#116FFF" class="active-path" style="fill:#0F0FBB" data-old_color="#116FFF"/></g></g> </svg>
