<?xml version="1.0"?>
<svg xmlns="http://www.w3.org/2000/svg" id="icons" enable-background="new 0 0 64 64" height="512px" viewBox="0 0 64 64" width="512px"><g><path d="m63.947 16.227c-.018-.061-.038-.117-.067-.174-.03-.061-.068-.114-.111-.168-.023-.029-.034-.065-.062-.093l-9.998-10.001c-.026-.026-.061-.036-.088-.059-.053-.042-.106-.08-.168-.111s-.123-.054-.189-.072c-.034-.009-.062-.031-.098-.037l-12.002-2.001c-.029-.005-.056.005-.085.003-.028-.002-.053-.017-.081-.017h-17.996c-.029 0-.053.014-.081.017-.029.002-.056-.008-.085-.003l-12.002 2.001c-.036.006-.063.028-.098.037-.066.019-.128.041-.189.072s-.115.069-.168.111c-.027.022-.062.033-.088.059l-9.998 10.001c-.027.027-.038.063-.062.093-.043.054-.081.107-.111.168-.029.057-.05.113-.067.174-.018.063-.03.123-.036.187s-.003.125.003.188c.007.063.018.123.036.185.02.064.047.122.08.182.018.034.022.072.045.104l7.004 10.001c.001.001.003.002.004.003s.001.003.002.004c.054.075.132.117.2.172.056.044.1.107.161.138.14.072.296.109.453.109.1 0 .2-.015.298-.046.031-.01.059-.031.089-.044.063-.027.128-.05.186-.091.001-.001.002-.002.003-.003s.003-.001.005-.002l5.419-3.871v33.046c0 .007-.004.013-.004.02s.004.013.004.02v.979c0 1.652 1.344 2.996 2.996 2.996h30c1.652 0 2.996-1.344 2.996-2.996v-34.065l5.419 3.871c.002.001.004.001.005.002s.002.002.003.003c.058.041.122.064.186.091.03.013.058.034.089.044.098.031.198.046.298.046.157 0 .313-.037.453-.108.062-.031.105-.094.161-.138.068-.056.146-.097.2-.172.001-.001.001-.002.002-.004s.003-.002.004-.003l7.004-10.001c.022-.032.027-.07.045-.104.033-.06.061-.118.08-.182.019-.062.029-.122.036-.185.006-.064.009-.125.003-.188-.007-.066-.02-.126-.038-.188zm-8.191 8.873-6.179-4.414c-.029-.021-.064-.025-.096-.043-.06-.034-.118-.061-.185-.083-.065-.021-.129-.032-.196-.04-.036-.004-.067-.021-.104-.021-.028 0-.053.014-.081.016-.066.006-.129.021-.193.04-.063.018-.123.037-.181.067-.053.028-.1.063-.147.1-.057.044-.107.089-.153.144-.018.021-.042.031-.058.053-.021.029-.025.063-.042.094-.034.06-.063.12-.084.187-.021.065-.032.128-.039.196-.004.036-.021.067-.021.104v34.009h-31.993v-34.009c0-.037-.018-.068-.021-.104-.007-.067-.019-.13-.039-.195-.021-.067-.05-.127-.084-.187-.018-.031-.021-.065-.042-.094-.016-.022-.04-.033-.058-.054-.045-.054-.097-.099-.152-.143-.049-.038-.096-.073-.149-.101-.057-.029-.115-.048-.178-.066-.065-.019-.129-.034-.197-.04-.027-.002-.051-.016-.079-.016-.037 0-.067.017-.104.021-.067.007-.132.019-.198.04-.065.021-.124.048-.183.082-.031.018-.066.021-.097.043l-6.179 4.414-5.943-8.487 9.178-9.181 10.598-1.767c.581 4.964 4.807 8.831 9.924 8.831s9.343-3.867 9.924-8.831l10.598 1.767 9.178 9.181zm-8.756 33.403h-30c-.548 0-.994-.446-.996-.994h31.992c-.002.548-.448.994-.996.994zm-22.929-53.006h15.857c-.495 3.939-3.857 6.999-7.929 6.999s-7.433-3.059-7.928-6.999z" data-original="#000000" class="active-path" data-old_color="#000000" fill="#0F0FBB"/><path d="m31 8.497h2c.553 0 1-.448 1-1s-.447-1-1-1h-2c-.553 0-1 .448-1 1s.447 1 1 1z" data-original="#000000" class="active-path" data-old_color="#000000" fill="#0F0FBB"/><path d="m43.943 37.793c.02-.065.033-.129.04-.198.003-.032.019-.061.019-.094 0-.031-.015-.059-.018-.089-.006-.067-.021-.13-.04-.195-.02-.066-.044-.128-.076-.188-.015-.027-.017-.057-.034-.083l-7.996-12.002c-.155-.234-.393-.379-.648-.427-.063-.012-.125-.001-.188-.001s-.125-.011-.188.001c-.256.048-.493.193-.648.427l-3.667 5.504-1.669-2.504c-.155-.232-.391-.378-.645-.426-.063-.013-.126-.001-.189-.001s-.127-.012-.189.001c-.255.048-.49.194-.645.426l-5.998 9.002c-.019.028-.021.061-.037.091-.029.054-.051.109-.069.17-.022.071-.038.141-.044.215-.002.027-.016.051-.016.079 0 .03.015.055.017.084.007.075.021.146.044.218.019.056.038.106.064.157.032.061.069.113.113.167.041.05.084.094.135.135.026.022.041.052.07.071.036.024.076.034.113.054.032.016.062.031.095.044.113.042.229.07.346.07h.002.001 21.004.001c.116 0 .231-.028.344-.069.036-.014.068-.031.103-.049.036-.018.073-.027.107-.05.027-.019.042-.047.066-.066.055-.044.102-.092.145-.146.04-.05.074-.099.104-.153.029-.056.052-.113.071-.175zm-8.941-10.496 6.132 9.204h-12.264zm-8.535 9.204h-2.603l4.132-6.202 1.301 1.953z" data-original="#000000" class="active-path" data-old_color="#000000" fill="#0F0FBB"/><path d="m25 25.497c1.654 0 3-1.346 3-3s-1.346-3-3-3-3 1.346-3 3 1.346 3 3 3zm0-4c.552 0 1 .449 1 1s-.448 1-1 1-1-.449-1-1 .448-1 1-1z" data-original="#000000" class="active-path" data-old_color="#000000" fill="#0F0FBB"/></g> </svg>
