<?xml version="1.0"?>
<svg xmlns="http://www.w3.org/2000/svg" id="icons" enable-background="new 0 0 64 64" height="512px" viewBox="0 0 64 64" width="512px"><g><path d="m55.506 21.992c-.001 0-.001 0 0 0h-10.005v-4.988c0-.004.002-.006.002-.01 0-1.654-1.346-3-3-3h-36.009c-1.654 0-3 1.346-3 3v38.002c0 4.965 4.039 9.004 9.004 9.004h23.999c4.965 0 9.004-4.039 9.004-9.004v-2.004h10.004.001c2.757 0 5-2.243 5-5v-21c0-2.757-2.243-5-5-5zm-2.002 23.998h-8.003v-16.996h8.003zm-17.007 16.01h-23.999c-3.862 0-7.004-3.142-7.004-7.004v-38.002c0-.552.448-1 1-1h36.009c.55 0 .996.445.999.995 0 .002-.001.003-.001.005v38.002c0 3.862-3.142 7.004-7.004 7.004zm19.009-11.008c-.001 0-.001 0 0 0h-10.005v-3.002h9.003c.553 0 1-.447 1-1v-18.996c0-.553-.447-1-1-1h-9.003v-3.002h10.004.001c1.654 0 3 1.346 3 3v21c0 1.654-1.346 3-3 3z" data-original="#000000" class="active-path" data-old_color="#000000" fill="#0F0FBB"/><path d="m14.069 1.829c.45-.304.576-.914.28-1.373-.302-.463-.921-.595-1.384-.296-1.065.69-2.5 2.911-.3 6.376 1.627 2.562.425 3.532.3 3.622-.463.301-.596.92-.296 1.384.192.295.513.456.841.456.187 0 .375-.052.543-.16 1.065-.69 2.5-2.911.3-6.374-1.618-2.549-.437-3.524-.284-3.635z" data-original="#000000" class="active-path" data-old_color="#000000" fill="#0F0FBB"/><path d="m25.063 1.829c.45-.304.576-.914.28-1.373-.302-.463-.92-.595-1.384-.296-1.065.69-2.5 2.911-.3 6.376 1.627 2.562.425 3.532.3 3.622-.463.301-.596.92-.296 1.384.192.295.513.456.841.456.187 0 .375-.052.543-.16 1.065-.69 2.5-2.911.3-6.374-1.618-2.549-.437-3.524-.284-3.635z" data-original="#000000" class="active-path" data-old_color="#000000" fill="#0F0FBB"/><path d="m36.058 1.829c.45-.304.576-.914.28-1.373-.302-.463-.921-.595-1.384-.296-1.065.69-2.5 2.911-.3 6.376 1.627 2.562.425 3.532.3 3.622-.463.301-.596.92-.296 1.384.192.295.513.456.841.456.187 0 .375-.052.543-.16 1.065-.69 2.5-2.911.3-6.374-1.618-2.549-.438-3.524-.284-3.635z" data-original="#000000" class="active-path" data-old_color="#000000" fill="#0F0FBB"/><path d="m38.479 47.109c.004-.035.021-.065.021-.102 0-.029-.015-.054-.017-.082-.006-.071-.021-.138-.042-.207-.018-.059-.037-.114-.065-.168-.015-.029-.017-.062-.035-.09l-9-13.986c-.002-.004-.006-.006-.009-.009-.037-.057-.095-.1-.144-.148-.047-.045-.085-.099-.138-.133-.004-.003-.006-.007-.01-.01-.044-.028-.095-.034-.142-.056-.068-.03-.134-.066-.207-.08-.064-.013-.127-.005-.192-.005-.064 0-.128-.008-.191.005-.071.014-.136.049-.203.078-.048.021-.101.028-.146.058-.005.003-.007.008-.011.011-.05.032-.086.084-.131.126-.052.051-.11.095-.149.154-.003.003-.007.005-.009.009l-4.683 7.277-2.138-3.289c-.002-.003-.005-.004-.007-.007-.036-.055-.092-.095-.139-.142-.048-.047-.087-.103-.142-.139-.003-.002-.004-.005-.007-.007-.043-.028-.093-.034-.138-.055-.071-.032-.139-.07-.215-.085-.064-.013-.128-.004-.192-.004s-.128-.009-.192.004c-.074.015-.14.052-.209.083-.047.021-.099.027-.144.057-.003.002-.004.005-.007.007-.052.034-.09.088-.135.133-.05.049-.107.091-.146.147-.002.003-.005.004-.007.007l-6.5 10c-.017.025-.018.054-.031.08-.032.059-.054.119-.073.184-.02.066-.034.131-.04.198-.002.029-.017.054-.017.083 0 .035.017.064.02.099.007.068.02.133.04.199.02.062.044.117.074.174.029.055.063.104.104.153.044.054.092.1.146.144.026.021.043.051.072.07.032.021.069.03.104.048.032.016.062.031.096.044.112.041.229.069.345.069h.001 24c.034 0 .063-.016.096-.02.076-.007.151-.02.226-.045.053-.019.1-.042.148-.068.023-.012.049-.018.071-.032.021-.014.032-.036.053-.051.067-.052.127-.107.18-.175.032-.041.06-.081.085-.126.035-.063.063-.125.084-.195.018-.06.03-.12.037-.185zm-14.684-4.935c.01-.014.019-.028.027-.043l4.677-7.268 7.171 11.145h-14.342zm-4.846 3.834h-3.607l4.657-7.164 1.79 2.753z" data-original="#000000" class="active-path" data-old_color="#000000" fill="#0F0FBB"/><path d="m15.501 33.99c1.654 0 3-1.346 3-3s-1.346-3-3-3-3 1.346-3 3 1.346 3 3 3zm0-4c.552 0 1 .448 1 1s-.448 1-1 1-1-.448-1-1 .448-1 1-1z" data-original="#000000" class="active-path" data-old_color="#000000" fill="#0F0FBB"/></g> </svg>
