<?xml version="1.0"?>
<svg xmlns="http://www.w3.org/2000/svg" height="512px" viewBox="-8 0 448 448" width="512px"><g><path d="m248 296c0 17.671875-14.328125 32-32 32s-32-14.328125-32-32 14.328125-32 32-32 32 14.328125 32 32zm0 0" data-original="#000000" class="active-path" data-old_color="#000000" fill="#0F0FBB"/><path d="m80 223.199219-32-21.597657-32 21.597657v-95.199219h-16v304h136v-210.398438c0-10.402343 2.398438-20 8-28.800781v-64.800781h-64zm32 160.800781h-80v-16h80zm0-32h-80v-16h80zm0-72c0 22.398438-17.601562 40-40 40s-40-17.601562-40-40 17.601562-40 40-40 40 17.601562 40 40zm0 0" data-original="#000000" class="active-path" data-old_color="#000000" fill="#0F0FBB"/><path d="m420.800781 120-20.800781-20.800781-20.800781 20.800781zm0 0" data-original="#000000" class="active-path" data-old_color="#000000" fill="#0F0FBB"/><path d="m257.601562 185.601562-12.800781-6.402343c-8-4-13.601562-12-13.601562-21.597657v-133.601562h-32v134.398438c0 8.800781-4.800781 17.601562-13.597657 21.601562l-12.800781 6.398438c-13.601562 6.402343-22.402343 20.800781-22.402343 36v217.601562c0 4.800781 3.203124 8 8 8h112c4.800781 0 8-3.199219 8-8v-218.398438c1.601562-15.203124-7.199219-28.800781-20.796876-36zm-73.601562 30.398438h64v16h-64zm80 200h-96v-16h96zm0-32h-96v-16h96zm-48-40c-26.398438 0-48-21.601562-48-48s21.601562-48 48-48 48 21.601562 48 48-21.601562 48-48 48zm0 0" data-original="#000000" class="active-path" data-old_color="#000000" fill="#0F0FBB"/><path d="m320 64h72v16h-72zm0 0" data-original="#000000" class="active-path" data-old_color="#000000" fill="#0F0FBB"/><path d="m236.800781 8 1.597657-1.601562-3.199219-6.398438h-38.398438l-3.199219 6.398438 1.597657 1.601562zm0 0" data-original="#000000" class="active-path" data-old_color="#000000" fill="#0F0FBB"/><path d="m48 182.398438 16 10.402343v-64.800781h-32v64.800781zm0 0" data-original="#000000" class="active-path" data-old_color="#000000" fill="#0F0FBB"/><path d="m96 280c0 13.253906-10.746094 24-24 24s-24-10.746094-24-24 10.746094-24 24-24 24 10.746094 24 24zm0 0" data-original="#000000" class="active-path" data-old_color="#000000" fill="#0F0FBB"/><path d="m124 96h-104l-12 16h128zm0 0" data-original="#000000" class="active-path" data-old_color="#000000" fill="#0F0FBB"/><path d="m315.199219 96-24 24h65.601562l24-24zm0 0" data-original="#000000" class="active-path" data-old_color="#000000" fill="#0F0FBB"/><path d="m280 182.398438c10.398438 10.402343 16 24.800781 16 39.203124v202.398438h56v-288h-72zm56 193.601562h-24v-16h24zm0-32h-24v-16h24zm-24-32v-16c4.800781 0 8-3.199219 8-8s-3.199219-8-8-8v-16c13.601562 0 24 10.398438 24 24s-10.398438 24-24 24zm-8-152h32v16h-32zm0 0" data-original="#000000" class="active-path" data-old_color="#000000" fill="#0F0FBB"/><path d="m368 136v288h64v-288zm48 272h-32v-16h32zm0-32h-32v-16h32zm0 0" data-original="#000000" class="active-path" data-old_color="#000000" fill="#0F0FBB"/></g> </svg>
